<svg width="40" height="40" viewBox="0 0 40 40" fill="none" xmlns="http://www.w3.org/2000/svg">
<path fill-rule="evenodd" clip-rule="evenodd" d="M10.586 0.146762C10.4141 0.225591 10.1719 0.391841 10.0477 0.516137C9.65266 0.911684 9.58563 1.18004 9.54758 2.5195L9.51266 3.74997H8.39805C7.46344 3.74997 7.18211 3.77926 6.65648 3.93153C5.53797 4.25551 4.59148 4.99192 3.96766 6.02356C3.59914 6.63309 3.4507 7.10551 3.35656 7.96872C3.2607 8.847 3.2607 34.9029 3.35656 35.7812C3.45039 36.6417 3.59914 37.1168 3.96258 37.7178C4.54383 38.6786 5.47664 39.4454 6.47883 39.7863L6.99227 39.9609L18.967 39.9817C29.384 39.9997 31.0075 39.9872 31.447 39.8853C33.0945 39.5032 34.495 38.109 34.8826 36.4651C35.056 35.7294 35.056 8.02051 34.8826 7.28481C34.4954 5.6427 33.1071 4.25457 31.4645 3.86731C31.1563 3.79465 30.5667 3.75184 29.8634 3.75114L28.7501 3.74997L28.7484 2.5195C28.7464 1.12332 28.6721 0.847075 28.1831 0.4177C27.3813 -0.286362 26.1496 -0.0720657 25.6251 0.862778C25.443 1.18731 25.428 1.29692 25.4035 2.48043L25.3773 3.74997H23.1251H20.8729L20.8466 2.48043C20.8222 1.29692 20.8072 1.18731 20.6251 0.862778C20.1005 -0.0720657 18.8689 -0.286362 18.067 0.4177C17.578 0.847075 17.5038 1.12332 17.5018 2.5195L17.5001 3.74997H15.2438H12.9875L12.9508 2.5195C12.9109 1.18395 12.8566 0.959575 12.4758 0.556841C11.9716 0.0237937 11.213 -0.140894 10.586 0.146762ZM10.9391 13.5351C10.248 13.8882 9.87891 14.6643 10.0659 15.3711C10.1926 15.85 10.5072 16.2441 10.9391 16.4648L11.2832 16.6406L15.8174 16.6389C20.0641 16.6372 20.3715 16.628 20.6641 16.4925C20.836 16.4129 21.0715 16.2467 21.1873 16.1231C21.9604 15.2986 21.6979 13.9861 20.6641 13.5075C20.3715 13.3719 20.0641 13.3627 15.8174 13.3611L11.2832 13.3593L10.9391 13.5351ZM11.1374 20.1158C10.7088 20.2695 10.4588 20.4715 10.2563 20.8276C9.88977 21.4725 9.95859 22.2025 10.4358 22.7307C10.9719 23.3241 10.2266 23.2812 19.9948 23.2812C27.1634 23.2812 28.8008 23.2621 29.0065 23.176C29.3612 23.0275 29.8194 22.4904 29.9245 22.0998C30.1132 21.3991 29.7543 20.5543 29.1252 20.2185L28.7891 20.039L20.1173 20.0222C12.812 20.0081 11.3969 20.0229 11.1374 20.1158ZM10.9576 26.8472C10.8182 26.9159 10.5828 27.1065 10.4345 27.2707C9.62328 28.1686 10.0675 29.6034 11.2557 29.9233C11.4488 29.9754 14.5175 29.9954 20.1697 29.9818L28.7891 29.9609L29.1581 29.7439C29.7888 29.3732 30.1121 28.5968 29.9252 27.9024C29.8195 27.5099 29.3619 26.9728 29.0065 26.8239C28.8007 26.7378 27.1646 26.719 19.983 26.7205C12.1041 26.7221 11.1852 26.735 10.9576 26.8472Z" fill="#002724"/>
</svg>
