<svg width="24" height="24" viewBox="0 0 24 24" fill="none" xmlns="http://www.w3.org/2000/svg">
<path d="M18.0001 7.49961V16.4996C18.0001 16.6985 17.9211 16.8893 17.7804 17.0299C17.6398 17.1706 17.449 17.2496 17.2501 17.2496H12.0001V20.9996C12.0002 21.148 11.9563 21.2932 11.8739 21.4166C11.7915 21.54 11.6743 21.6363 11.5372 21.6931C11.4001 21.7499 11.2492 21.7648 11.1036 21.7358C10.9581 21.7068 10.8244 21.6353 10.7195 21.5302L1.71948 12.5302C1.64974 12.4606 1.59443 12.3779 1.55668 12.2868C1.51894 12.1958 1.49951 12.0982 1.49951 11.9996C1.49951 11.9011 1.51894 11.8035 1.55668 11.7124C1.59443 11.6214 1.64974 11.5386 1.71948 11.469L10.7195 2.46899C10.8244 2.36398 10.9581 2.29245 11.1036 2.26347C11.2492 2.23448 11.4001 2.24933 11.5372 2.30615C11.6743 2.36296 11.7915 2.45918 11.8739 2.58263C11.9563 2.70607 12.0002 2.85119 12.0001 2.99961V6.74961H17.2501C17.449 6.74961 17.6398 6.82863 17.7804 6.96928C17.9211 7.10994 18.0001 7.3007 18.0001 7.49961ZM20.2501 6.74961C20.0512 6.74961 19.8604 6.82863 19.7198 6.96928C19.5791 7.10994 19.5001 7.3007 19.5001 7.49961V16.4996C19.5001 16.6985 19.5791 16.8893 19.7198 17.0299C19.8604 17.1706 20.0512 17.2496 20.2501 17.2496C20.449 17.2496 20.6398 17.1706 20.7804 17.0299C20.9211 16.8893 21.0001 16.6985 21.0001 16.4996V7.49961C21.0001 7.3007 20.9211 7.10994 20.7804 6.96928C20.6398 6.82863 20.449 6.74961 20.2501 6.74961Z" fill="white"/>
</svg>
