<svg width="140" height="125" viewBox="0 0 140 125" fill="none" xmlns="http://www.w3.org/2000/svg">
<path d="M75.0003 64.9866V99.9866C75.0003 101.313 74.4735 102.584 73.5359 103.522C72.5982 104.46 71.3264 104.987 70.0003 104.987C68.6742 104.987 67.4025 104.46 66.4648 103.522C65.5271 102.584 65.0003 101.313 65.0003 99.9866V64.9866C65.0003 63.6605 65.5271 62.3887 66.4648 61.451C67.4025 60.5133 68.6742 59.9866 70.0003 59.9866C71.3264 59.9866 72.5982 60.5133 73.5359 61.451C74.4735 62.3887 75.0003 63.6605 75.0003 64.9866ZM98.0253 64.4866L94.5253 99.4866C94.4562 100.142 94.5172 100.804 94.705 101.436C94.8927 102.068 95.2034 102.656 95.6193 103.167C96.0352 103.678 96.548 104.102 97.1282 104.414C97.7084 104.727 98.3447 104.921 99.0003 104.987C99.1689 104.996 99.338 104.996 99.5066 104.987C100.745 104.985 101.939 104.524 102.857 103.693C103.775 102.861 104.351 101.719 104.475 100.487L107.975 65.4866C108.108 64.1671 107.711 62.849 106.872 61.8223C106.033 60.7955 104.82 60.1442 103.5 60.0116C102.181 59.879 100.863 60.2759 99.836 61.1152C98.8093 61.9544 98.1579 63.1671 98.0253 64.4866ZM41.9753 64.4866C41.8427 63.1671 41.1914 61.9544 40.1646 61.1152C39.1379 60.2759 37.8198 59.879 36.5003 60.0116C35.1809 60.1442 33.9681 60.7955 33.1289 61.8223C32.2897 62.849 31.8927 64.1671 32.0253 65.4866L35.5253 100.487C35.6497 101.724 36.2309 102.871 37.1554 103.703C38.08 104.535 39.2815 104.993 40.5253 104.987C40.6939 104.996 40.863 104.996 41.0316 104.987C41.6849 104.921 42.3189 104.727 42.8974 104.417C43.4759 104.106 43.9875 103.684 44.403 103.176C44.8186 102.667 45.1299 102.082 45.3192 101.453C45.5086 100.825 45.5722 100.165 45.5066 99.5116L41.9753 64.4866ZM139.957 45.6491L130.538 116.312C130.209 118.71 129.025 120.908 127.204 122.503C125.382 124.097 123.046 124.979 120.625 124.987H19.3753C16.9548 124.979 14.6185 124.097 12.797 122.503C10.9755 120.908 9.79139 118.71 9.46283 116.312L0.0440853 45.6491C-0.0503333 44.9428 0.00731332 44.2244 0.213161 43.5422C0.419009 42.86 0.768302 42.2297 1.23763 41.6935C1.70696 41.1572 2.28548 40.7276 2.93443 40.4332C3.58337 40.1388 4.28774 39.9865 5.00034 39.9866H32.7316L66.2503 1.69281C66.7195 1.16078 67.2966 0.734675 67.9431 0.44281C68.5897 0.150945 69.2909 0 70.0003 0C70.7097 0 71.411 0.150945 72.0575 0.44281C72.7041 0.734675 73.2811 1.16078 73.7503 1.69281L107.269 39.9866H135C135.713 39.9865 136.417 40.1388 137.066 40.4332C137.715 40.7276 138.294 41.1572 138.763 41.6935C139.232 42.2297 139.582 42.86 139.788 43.5422C139.993 44.2244 140.051 44.9428 139.957 45.6491ZM46.0191 39.9866H93.9816L70.0003 12.5803L46.0191 39.9866ZM129.288 49.9866H10.7128L19.3753 114.987H120.625L129.288 49.9866Z" fill="#E0C0AB"/>
</svg>
