<svg width="32" height="32" viewBox="0 0 32 32" fill="none" xmlns="http://www.w3.org/2000/svg">
<path d="M4 9.3335H8" stroke="#E0C0AB" stroke-width="2" stroke-linecap="round" stroke-linejoin="round"/>
<path d="M4 22.6665H12" stroke="#E0C0AB" stroke-width="2" stroke-linecap="round" stroke-linejoin="round"/>
<path d="M24 22.6665H28" stroke="#E0C0AB" stroke-width="2" stroke-linecap="round" stroke-linejoin="round"/>
<path d="M20 9.3335H28" stroke="#E0C0AB" stroke-width="2" stroke-linecap="round" stroke-linejoin="round"/>
<path d="M8 9.3335C8 8.09099 8 7.46974 8.20299 6.97967C8.47364 6.32627 8.99277 5.80714 9.64617 5.53648C10.1362 5.3335 10.7575 5.3335 12 5.3335C13.2425 5.3335 13.8637 5.3335 14.3539 5.53648C15.0072 5.80714 15.5264 6.32627 15.7971 6.97967C16 7.46974 16 8.09099 16 9.3335C16 10.576 16 11.1973 15.7971 11.6873C15.5264 12.3407 15.0072 12.8599 14.3539 13.1305C13.8637 13.3335 13.2425 13.3335 12 13.3335C10.7575 13.3335 10.1362 13.3335 9.64617 13.1305C8.99277 12.8599 8.47364 12.3407 8.20299 11.6873C8 11.1973 8 10.576 8 9.3335Z" stroke="#E0C0AB" stroke-width="2"/>
<path d="M16 22.6665C16 21.424 16 20.8028 16.2029 20.3126C16.4736 19.6593 16.9928 19.1401 17.6461 18.8694C18.1363 18.6665 18.7575 18.6665 20 18.6665C21.2425 18.6665 21.8637 18.6665 22.3539 18.8694C23.0072 19.1401 23.5264 19.6593 23.7971 20.3126C24 20.8028 24 21.424 24 22.6665C24 23.909 24 24.5302 23.7971 25.0204C23.5264 25.6737 23.0072 26.1929 22.3539 26.4636C21.8637 26.6665 21.2425 26.6665 20 26.6665C18.7575 26.6665 18.1363 26.6665 17.6461 26.4636C16.9928 26.1929 16.4736 25.6737 16.2029 25.0204C16 24.5302 16 23.909 16 22.6665Z" stroke="#E0C0AB" stroke-width="2"/>
</svg>
