<svg width="100" height="74" viewBox="0 0 100 74" fill="none" xmlns="http://www.w3.org/2000/svg">
<path d="M6.04883 22.6722H17.1621C17.5506 22.6722 17.9232 22.5178 18.1979 22.2431C18.4726 21.9684 18.627 21.5958 18.627 21.2073C18.627 20.8188 18.4726 20.4462 18.1979 20.1715C17.9232 19.8968 17.5506 19.7425 17.1621 19.7425H6.04883C5.66033 19.7425 5.28774 19.8968 5.01303 20.1715C4.73832 20.4462 4.58398 20.8188 4.58398 21.2073C4.58398 21.5958 4.73832 21.9684 5.01303 22.2431C5.28774 22.5178 5.66033 22.6722 6.04883 22.6722ZM3.11914 28.5315H17.1621C17.5506 28.5315 17.9232 28.3772 18.1979 28.1025C18.4726 27.8278 18.627 27.4552 18.627 27.0667C18.627 26.6782 18.4726 26.3056 18.1979 26.0309C17.9232 25.7562 17.5506 25.6019 17.1621 25.6019H3.11914C2.73064 25.6019 2.35805 25.7562 2.08334 26.0309C1.80863 26.3056 1.6543 26.6782 1.6543 27.0667C1.6543 27.4552 1.80863 27.8278 2.08334 28.1025C2.35805 28.3772 2.73064 28.5315 3.11914 28.5315ZM8.97852 16.8128H17.1621C17.5506 16.8128 17.9232 16.6585 18.1979 16.3837C18.4726 16.109 18.627 15.7364 18.627 15.3479C18.627 14.9594 18.4726 14.5869 18.1979 14.3121C17.9232 14.0374 17.5506 13.8831 17.1621 13.8831H8.97852C8.59002 13.8831 8.21743 14.0374 7.94271 14.3121C7.668 14.5869 7.51367 14.9594 7.51367 15.3479C7.51367 15.7364 7.668 16.109 7.94271 16.3837C8.21743 16.6585 8.59002 16.8128 8.97852 16.8128ZM98.5352 70.5081H94.7318C96.5591 68.861 97.7762 66.6449 98.1859 64.2192C98.6577 61.4219 98.0361 58.5502 96.4498 56.1983L97.2867 55.7003C97.6206 55.5016 97.8618 55.1785 97.9574 54.802C98.053 54.4254 97.9951 54.0263 97.7965 53.6925C96.456 51.4435 94.4773 49.6438 92.1116 48.5222C89.7459 47.4005 87.1001 47.0075 84.5105 47.3931C83.2625 44.4214 81.9779 40.1884 80.7336 36.0854C80.0078 33.6919 79.2629 31.2364 78.5178 29.0048H79.3127C79.7012 29.0048 80.0738 28.8505 80.3485 28.5757C80.6232 28.301 80.7775 27.9284 80.7775 27.5399V18.9282C80.7775 18.5397 80.6232 18.1671 80.3485 17.8924C80.0738 17.6177 79.7012 17.4634 79.3127 17.4634H73.3822C72.1072 17.465 70.8685 17.8882 69.859 18.667C68.8494 19.4457 68.1257 20.5364 67.8004 21.7692H62.1955C61.807 21.7692 61.4344 21.9236 61.1597 22.1983C60.885 22.473 60.7307 22.8456 60.7307 23.2341C60.7307 23.6226 60.885 23.9952 61.1597 24.2699C61.4344 24.5446 61.807 24.6989 62.1955 24.6989H67.8004C68.0176 25.5234 68.4152 26.2893 68.9645 26.9415C68.9772 27.0275 68.9976 27.1122 69.0254 27.1946C69.8416 29.5827 71.2781 34.9474 71.3814 35.4345C72.9838 43.0019 73.208 52.3937 65.1768 54.1624C63.4224 54.5393 61.5994 54.4446 59.8935 53.8879C58.1876 53.3311 56.6598 52.3323 55.4654 50.9931C52.4436 47.5331 52.243 42.2079 54.9762 38.0405C55.7304 37.5599 56.3083 36.8476 56.6231 36.0104C56.9379 35.1733 56.9726 34.2567 56.722 33.3982C56.4713 32.5397 55.9489 31.7857 55.2331 31.2495C54.5173 30.7133 53.6469 30.4238 52.7525 30.4245H51.502C51.5267 30.2628 51.5397 30.0995 51.541 29.9358V24.3645C53.5865 24.1797 55.5522 23.4819 57.2563 22.3355C58.9604 21.1891 60.3477 19.6313 61.2897 17.8064C62.2318 15.9814 62.6982 13.9482 62.6457 11.8951C62.5932 9.84201 62.0236 7.83532 60.9895 6.06086C59.9554 4.2864 58.4904 2.80152 56.73 1.7437C54.9696 0.68589 52.9707 0.0893383 50.9185 0.00927942C48.8663 -0.0707794 46.827 0.368244 44.9896 1.2857C43.1521 2.20316 41.5758 3.56939 40.4066 5.25791H24.9746C24.0684 5.25894 23.1997 5.61938 22.5589 6.26015C21.9181 6.90092 21.5577 7.76969 21.5566 8.67588V29.9356C21.5577 30.8418 21.9181 31.7106 22.5589 32.3514C23.1997 32.9921 24.0684 33.3526 24.9746 33.3536H27.2559C27.025 34.1075 27.0154 34.9117 27.2283 35.6709C27.4412 36.43 27.8676 37.112 28.4568 37.6358C27.952 37.8695 27.4578 38.1255 26.9756 38.403C21.9561 41.3036 17.7092 46.9536 16.1562 52.797C15.1891 56.4356 15.4039 59.7413 16.7566 62.1192C16.7586 62.1233 16.7609 62.1272 16.7631 62.1313C16.7736 62.1499 16.7828 62.1694 16.7936 62.1878C16.7984 62.1964 16.8047 62.2036 16.81 62.212C16.833 62.25 16.8578 62.2869 16.8844 62.3226C16.8922 62.3331 16.8992 62.3444 16.9074 62.3548C16.9421 62.3987 16.9792 62.4405 17.0186 62.4802C17.0295 62.4913 17.0412 62.5017 17.0525 62.5124C17.0843 62.5426 17.1175 62.5715 17.1521 62.5989C17.1639 62.6083 17.1756 62.6179 17.1879 62.6269C17.232 62.6598 17.2779 62.6903 17.3254 62.7181L17.3305 62.7214C17.3819 62.7507 17.4352 62.7769 17.4898 62.7997C17.5012 62.8044 17.5127 62.8083 17.524 62.8128C17.5662 62.8293 17.6094 62.844 17.6537 62.8569L17.7043 62.8706C17.7199 62.8745 17.735 62.8796 17.751 62.8831C17.7783 62.889 17.8059 62.8919 17.8334 62.8964C17.849 62.8987 17.8641 62.9019 17.8797 62.9038C17.9399 62.9117 18.0006 62.9159 18.0613 62.9163C18.065 62.9163 18.0684 62.9155 18.0719 62.9155H18.0785L23.2719 62.8479C23.3442 64.3047 23.7061 65.7324 24.3365 67.0476C24.9669 68.3629 25.8531 69.5393 26.9434 70.5081H1.46484C1.07634 70.5081 0.703754 70.6624 0.429043 70.9371C0.154331 71.2119 0 71.5844 0 71.9729C0 72.3615 0.154331 72.734 0.429043 73.0088C0.703754 73.2835 1.07634 73.4378 1.46484 73.4378H98.5352C98.9237 73.4378 99.2962 73.2835 99.571 73.0088C99.8457 72.734 100 72.3615 100 71.9729C100 71.5844 99.8457 71.2119 99.571 70.9371C99.2962 70.6624 98.9237 70.5081 98.5352 70.5081ZM86.4531 50.1843C87.9835 50.1828 89.4948 50.5234 90.8766 51.181C92.2585 51.8386 93.4759 52.7966 94.44 53.9851L93.7379 54.403C93.5702 54.4648 93.4153 54.5569 93.2809 54.6747L76.4215 64.7071C75.48 62.4301 75.3889 59.8905 76.1649 57.5519C76.9408 55.2133 78.532 53.2318 80.6479 51.9692L81.2287 51.6235C82.8083 50.6807 84.6137 50.1833 86.4533 50.1841L86.4531 50.1843ZM89.5215 62.7341C89.4358 63.2339 89.1807 63.6889 88.799 64.0228C88.4173 64.3566 87.9324 64.5489 87.4257 64.5674C86.9189 64.5859 86.4213 64.4294 86.0163 64.1242C85.6114 63.819 85.3238 63.3837 85.202 62.8915L88.8348 60.7298C89.1079 60.9796 89.314 61.2941 89.4339 61.6443C89.5539 61.9945 89.584 62.3692 89.5215 62.7341ZM70.541 23.2341C70.5419 22.4808 70.8415 21.7587 71.3742 21.2261C71.9068 20.6935 72.629 20.3939 73.3822 20.3931H77.848V26.0751H73.3822C72.629 26.0742 71.9069 25.7746 71.3743 25.242C70.8417 24.7094 70.5419 23.9873 70.541 23.2341ZM52.7525 33.3542C53.0721 33.3522 53.3795 33.4773 53.6069 33.7018C53.8343 33.9264 53.9631 34.2321 53.9651 34.5518C53.9671 34.8714 53.8421 35.1787 53.6175 35.4061C53.3929 35.6335 53.0872 35.7624 52.7676 35.7644H38.8295C37.9194 35.7125 37.0071 35.7128 36.0971 35.7653H31.2109C31.0513 35.7674 30.8929 35.7377 30.7449 35.678C30.5968 35.6183 30.4621 35.5299 30.3485 35.4177C30.2349 35.3056 30.1447 35.172 30.0832 35.0247C30.0216 34.8774 29.9899 34.7194 29.9899 34.5598C29.9899 34.4001 30.0216 34.2421 30.0832 34.0948C30.1447 33.9476 30.2349 33.814 30.3485 33.7018C30.4621 33.5897 30.5968 33.5012 30.7449 33.4415C30.8929 33.3818 31.0513 33.3522 31.2109 33.3542H52.7525ZM50.434 2.92998C52.2692 2.92971 54.0633 3.47366 55.5893 4.49306C57.1154 5.51245 58.3049 6.96149 59.0074 8.65693C59.7099 10.3524 59.8938 12.2181 59.5359 14.018C59.1781 15.818 58.2945 17.4715 56.9969 18.7692C55.6993 20.067 54.046 20.9509 52.246 21.309C50.4461 21.6671 48.5804 21.4835 46.8849 20.7812C45.1893 20.079 43.7401 18.8897 42.7205 17.3638C41.7009 15.8379 41.1566 14.0439 41.1566 12.2087C41.1592 9.74889 42.1374 7.39055 43.8766 5.65106C45.6158 3.91156 47.9742 2.93298 50.434 2.92998ZM24.9746 30.4241C24.8452 30.424 24.7211 30.3725 24.6295 30.2809C24.538 30.1894 24.4865 30.0653 24.4863 29.9358V8.67607C24.4865 8.54662 24.538 8.42251 24.6295 8.33097C24.7211 8.23944 24.8452 8.18794 24.9746 8.18779H38.9102C38.3181 9.88169 38.1068 11.6853 38.2915 13.4702C38.4762 15.2551 39.0523 16.9772 39.9787 18.514C40.9052 20.0508 42.1591 21.3643 43.6512 22.361C45.1434 23.3577 46.8369 24.0131 48.6113 24.2804V29.9358C48.6112 30.0653 48.5597 30.1894 48.4681 30.2809C48.3766 30.3725 48.2525 30.424 48.123 30.4241H24.9746ZM18.9875 53.5495C20.3508 48.4202 24.0617 43.4704 28.4414 40.9394C30.8115 39.6014 33.4602 38.8331 36.1783 38.695H51.3086C49.227 43.527 49.9131 49.0892 53.259 52.9202C54.8013 54.6521 56.7751 55.9443 58.9793 56.6651C61.1835 57.3859 63.5394 57.5096 65.807 57.0235C73.9033 55.2403 76.9008 47.3579 74.2475 34.8278C74.1479 34.3565 73.3826 31.4784 72.6412 28.9556C72.8869 28.9878 73.1344 29.0043 73.3822 29.0048H75.4244C76.2594 31.4267 77.107 34.2216 77.9301 36.9356C79.1465 40.9474 80.4012 45.0813 81.6582 48.1622C80.9913 48.4244 80.3467 48.74 79.7305 49.1058L79.1498 49.4515C77.6594 50.3328 76.3586 51.5011 75.3227 52.8886C74.2869 54.2761 73.5365 55.8552 73.115 57.5347C72.9707 58.1068 72.8643 58.6878 72.7967 59.2739L50.3598 59.5657C48.8801 52.7669 44.133 47.32 38.241 45.8101C34.2283 44.7821 29.6695 45.5882 25.7332 48.0214C22.6863 49.9278 20.2076 52.618 18.5564 55.8104C18.6435 55.0471 18.7876 54.2913 18.9875 53.5495ZM19.9791 59.9608C21.2654 56.0067 23.8561 52.6259 27.2736 50.5132C30.5363 48.4966 34.2687 47.8167 37.5139 48.6483C42.1791 49.8437 45.9857 54.1464 47.3611 59.6048L19.9791 59.9608ZM36.4309 62.6767C36.3438 63.1849 36.0814 63.6467 35.6894 63.9817C35.2973 64.3167 34.8003 64.5038 34.2847 64.5105C33.7691 64.5173 33.2673 64.3432 32.8667 64.0185C32.466 63.6939 32.1917 63.2391 32.0914 62.7333L36.4309 62.6767ZM34.2568 70.3714C32.2056 70.3688 30.2321 69.586 28.7368 68.1817C27.2416 66.7774 26.3365 64.8569 26.2053 62.8099L29.1412 62.7718C29.2592 64.0591 29.8583 65.2547 30.8188 66.1198C31.7794 66.985 33.0308 67.4562 34.3235 67.4394C35.6161 67.4226 36.8549 66.919 37.7927 66.0291C38.7304 65.1393 39.2981 63.9286 39.3826 62.6386L42.3186 62.6003C42.2394 64.6863 41.3557 66.6606 39.8527 68.1094C38.3498 69.5582 36.3443 70.3688 34.2568 70.3714ZM41.5701 70.5081C42.696 69.5072 43.6037 68.2851 44.2366 66.9181C44.8696 65.551 45.2143 64.0683 45.2492 62.5622L49.059 62.5128C49.1255 62.5164 49.1922 62.5155 49.2586 62.5101L72.783 62.2042C72.9874 64.0828 73.5946 65.8952 74.5633 67.5177C74.7619 67.8515 75.0851 68.0928 75.4616 68.1884C75.8382 68.284 76.2372 68.2261 76.5711 68.0274L77.582 67.4259C78.1836 68.5861 78.9872 69.6298 79.9551 70.5081H41.5701ZM92.0047 68.9489C91.0518 69.6229 89.964 70.0821 88.8163 70.2949C87.6687 70.5077 86.4886 70.469 85.3574 70.1815C84.2262 69.8939 83.1708 69.3644 82.2641 68.6294C81.3574 67.8945 80.6209 66.9715 80.1055 65.9243L82.6393 64.4165C82.9306 65.0845 83.3607 65.6829 83.9011 66.1718C84.4415 66.6608 85.0797 67.0291 85.7734 67.2524C86.4671 67.4757 87.2004 67.5488 87.9245 67.4668C88.6487 67.3849 89.3471 67.1498 89.9733 66.7771C90.5996 66.4045 91.1394 65.9028 91.5568 65.3054C91.9743 64.7081 92.2598 64.0287 92.3945 63.3125C92.5292 62.5963 92.5099 61.8597 92.3379 61.1515C92.1659 60.4433 91.8452 59.7799 91.3971 59.2052L93.9291 57.6985C94.5419 58.5634 94.9783 59.5406 95.2132 60.5743C95.4482 61.6079 95.4771 62.6777 95.2984 63.7225C95.1197 64.7674 94.7368 65.7667 94.1716 66.6635C93.6065 67.5603 92.8701 68.3369 92.0047 68.9489ZM50.434 13.6735H54.658C55.0465 13.6735 55.4191 13.5192 55.6938 13.2445C55.9685 12.9698 56.1229 12.5972 56.1229 12.2087C56.1229 11.8202 55.9685 11.4476 55.6938 11.1729C55.4191 10.8982 55.0465 10.7438 54.658 10.7438H51.8988V6.6706C51.8988 6.2821 51.7445 5.90951 51.4698 5.6348C51.1951 5.36009 50.8225 5.20576 50.434 5.20576C50.0455 5.20576 49.6729 5.36009 49.3982 5.6348C49.1235 5.90951 48.9691 6.2821 48.9691 6.6706V12.2089C48.9691 12.5974 49.1235 12.97 49.3982 13.2447C49.6729 13.5194 50.0455 13.6735 50.434 13.6735Z" fill="#F2EAC5"/>
</svg>
