<svg width="40" height="40" viewBox="0 0 40 40" fill="none" xmlns="http://www.w3.org/2000/svg">
<g clip-path="url(#clip0_145_10609)">
<path fill-rule="evenodd" clip-rule="evenodd" d="M34.8828 0.147969C34.7539 0.228828 33.5186 1.43281 32.1377 2.82344C29.3386 5.64227 29.1922 5.83398 29.1928 6.67992C29.1933 7.30117 29.4336 7.83961 29.9275 8.32609L30.3151 8.70797L26.0464 12.9773L21.7775 17.2466L22.2607 17.7297L22.7439 18.2129L24.9071 16.1063C26.0968 14.9478 28.0265 13.0353 29.195 11.8564L31.3198 9.71297L31.6879 10.0867C32.1683 10.5745 32.6923 10.7998 33.3378 10.796C34.1959 10.791 34.3011 10.7105 37.1743 7.85852C38.6065 6.43687 39.8283 5.17875 39.8892 5.06273C40.0502 4.75617 40.0255 4.4918 39.8129 4.24461C39.6651 4.07266 39.559 4.02719 39.3059 4.02719C38.9898 4.02719 38.9535 4.05961 36.3046 6.70125C33.7371 9.26164 33.6108 9.37523 33.3305 9.37523C33.0908 9.37523 32.9714 9.31211 32.6712 9.02656L32.3047 8.67789L35.1523 5.82695C37.8336 3.14258 38 2.95969 38 2.69695C38 2.31398 37.6862 2.00023 37.3033 2.00023C37.0404 2.00023 36.8583 2.16609 34.1776 4.84602L31.331 7.69187L30.978 7.34539C30.6765 7.04953 30.625 6.95352 30.625 6.68797C30.625 6.38367 30.6826 6.31914 33.299 3.69562C35.9406 1.04672 35.973 1.01039 35.973 0.694297C35.973 0.110547 35.3999 -0.17664 34.8828 0.147969ZM18.3593 0.443282C15.4546 0.651094 12.3509 1.6257 9.80505 3.12945L9.13458 3.52547L9.29825 3.73547C9.75271 4.31859 10.0722 4.88766 10.2353 5.4043C10.3347 5.71922 10.4255 5.98914 10.4372 6.00414C10.4488 6.01922 10.8681 5.79625 11.369 5.50867C13.0604 4.5375 14.8592 3.8775 16.8242 3.50695C17.911 3.30203 20.4315 3.22039 21.6331 3.35125C23.4663 3.55078 25.6148 4.16977 27.1579 4.94289L28.0172 5.37344L28.2342 4.98727C28.3536 4.77484 28.7653 4.27258 29.1491 3.87109L29.847 3.14117L29.2008 2.79414C25.8581 0.998828 22.0713 0.177735 18.3593 0.443282ZM3.06622 2.25648C2.43599 2.47414 2.12138 2.78445 1.86849 3.43773C1.53536 4.29812 1.78497 6.00086 2.43271 7.28656C3.17755 8.76492 4.05146 9.61961 5.21365 10.0063C5.6274 10.1441 5.85286 10.1687 6.47302 10.1438C7.14685 10.1166 7.29325 10.0826 7.8295 9.82789C8.78622 9.37359 9.382 8.65383 9.65927 7.61742C9.88146 6.7868 9.74169 5.67211 9.32279 4.93461C8.27966 3.09805 4.86326 1.63563 3.06622 2.25648ZM17.4826 4.80898C16.8414 4.90883 15.2371 5.28398 15.1717 5.34938C15.1552 5.36586 15.2504 5.67445 15.3833 6.03523C15.5162 6.39609 15.625 6.80453 15.625 6.94305C15.625 7.49773 14.8972 7.79648 14.5056 7.40258C14.4095 7.30594 14.2304 6.94555 14.1076 6.6018C13.9847 6.25805 13.8602 5.94961 13.831 5.91648C13.6979 5.76555 11.2081 7.14016 10.5099 7.75C10.464 7.79 12.1994 9.58219 14.8804 12.2635L19.3271 16.7107L19.8003 16.7105L20.2734 16.7102L24.707 12.2813C27.1454 9.84531 29.1406 7.83008 29.1406 7.80297C29.1406 7.75445 28.1141 7.055 27.5781 6.73828C27.004 6.39914 25.8529 5.85437 25.791 5.89266C25.7554 5.91461 25.6127 6.25023 25.4739 6.63844C25.322 7.06289 25.1547 7.39086 25.0542 7.46125C24.7989 7.64016 24.3538 7.61078 24.1632 7.40258C23.8846 7.0982 23.8865 6.93742 24.1785 6.13086C24.3306 5.71062 24.4457 5.35742 24.4343 5.34602C24.4229 5.33461 24.0621 5.23672 23.6326 5.12852C22.7434 4.90461 21.3643 4.68773 20.8298 4.68773H20.4687V5.51156C20.4687 6.28219 20.4563 6.34789 20.2769 6.52719C20.0108 6.79344 19.5491 6.79219 19.2977 6.52453C19.1364 6.35281 19.1108 6.2343 19.0785 5.50891L19.042 4.68773L18.603 4.69531C18.3616 4.69945 17.8574 4.75062 17.4826 4.80898ZM9.23458 9.68164L8.74271 10.1877L12.7796 14.2252L16.8165 18.2627L17.3195 17.7498L17.8224 17.2369L13.7744 13.2062L9.72654 9.17555L9.23458 9.68164ZM2.74896 10.175C1.42872 12.3729 0.574739 14.8395 0.145286 17.6955C-0.0154952 18.7652 0.00825476 21.8276 0.186536 23.008C0.556536 25.4577 1.407 27.9302 2.58607 29.9841C5.29005 34.6946 9.69294 38.0569 14.8828 39.3745C16.7597 39.851 17.6486 39.9562 19.8047 39.9566C21.2189 39.9567 21.9004 39.9225 22.5781 39.8173C24.7666 39.4773 26.6844 38.8717 28.5937 37.9177C31.8057 36.313 34.2498 34.1688 36.2388 31.2112C37.9388 28.6832 38.9648 25.991 39.4246 22.8518C39.5947 21.6905 39.6165 18.9122 39.4642 17.8127C39.1089 15.2478 38.4007 13.0323 37.2472 10.8773L36.8595 10.1528L36.1293 10.8509C35.7277 11.2348 35.2247 11.647 35.0115 11.7669L34.6238 11.9848L35.0437 12.822C35.8024 14.3349 36.4364 16.4918 36.6369 18.243C36.7558 19.2806 36.7369 21.4059 36.6001 22.3802C36.0801 26.085 34.5244 29.3029 31.9629 31.972C29.2786 34.7691 25.7394 36.5316 21.7968 37.0349C20.8526 37.1555 18.7754 37.1569 17.8125 37.0378C13.9988 36.5659 10.4715 34.8473 7.83419 32.1762C5.12068 29.428 3.54544 26.2452 3.00021 22.4089C2.85115 21.3605 2.83271 19.1863 2.96419 18.1643C3.26771 15.8041 4.08833 13.4231 5.2663 11.4846C5.46216 11.1623 5.62294 10.8754 5.62365 10.847C5.62435 10.8185 5.48115 10.7709 5.30544 10.7412C4.88185 10.6697 3.8706 10.1578 3.46286 9.80867L3.13677 9.52937L2.74896 10.175ZM6.97818 11.426C6.407 12.2465 5.82341 13.3141 5.41982 14.2766C5.05013 15.1583 4.57724 16.7129 4.65505 16.7907C4.68005 16.8157 5.03552 16.8953 5.44497 16.9676C6.337 17.1249 6.56247 17.2832 6.56247 17.752C6.56247 17.9788 6.51075 18.1025 6.35575 18.2462C6.11333 18.4708 5.94349 18.4801 5.07833 18.3159C4.72521 18.249 4.41622 18.2142 4.39169 18.2387C4.36724 18.2632 4.31263 18.6891 4.27029 19.1851C4.19732 20.0415 4.28458 22.0452 4.39982 22.1605C4.42458 22.1852 4.75427 22.1487 5.13255 22.0793C6.0381 21.913 6.06802 21.9156 6.33411 22.1817C6.637 22.4846 6.64083 22.8245 6.34466 23.1207C6.16396 23.3013 6.01169 23.3556 5.45122 23.439C5.07958 23.4943 4.73747 23.563 4.69091 23.5919C4.51466 23.7008 5.6356 26.9488 5.9824 27.334C5.99677 27.3499 6.28263 27.2041 6.61755 27.01C6.95247 26.8159 7.30825 26.6327 7.4081 26.6028C7.85083 26.4705 8.332 26.9725 8.20083 27.4299C8.10482 27.7648 8.09099 27.7774 7.38107 28.1799C7.01732 28.3862 6.7195 28.5769 6.71927 28.6037C6.71786 28.7317 7.98615 30.3295 8.58685 30.9564L9.26294 31.6621L9.68263 31.1632C10.3103 30.4172 10.4413 30.3127 10.7501 30.3127C11.1306 30.3127 11.4065 30.599 11.4054 30.9928C11.4048 31.2437 11.3257 31.3829 10.8909 31.8982C10.4864 32.3777 10.3961 32.5298 10.4658 32.614C10.7557 32.9632 13.5653 34.58 13.766 34.5131C13.8098 34.4985 13.9638 34.1715 14.1083 33.7864C14.2527 33.4012 14.446 33.0247 14.5378 32.9494C14.784 32.7479 15.2023 32.7736 15.4332 33.0045C15.6931 33.2644 15.6809 33.5905 15.3821 34.373C15.2484 34.7229 15.1554 35.0255 15.1753 35.0454C15.3431 35.2131 17.9476 35.7034 18.6713 35.7034H19.0625L19.0629 35.0979C19.0636 34.0491 19.2653 33.6721 19.8256 33.6721C19.9971 33.6721 20.1503 33.7372 20.2769 33.8639C20.4563 34.0432 20.4687 34.1089 20.4687 34.8795V35.7034H20.9297C21.4839 35.7034 23.0176 35.4499 23.8281 35.2244C24.1504 35.1348 24.4209 35.0554 24.4293 35.048C24.4378 35.0407 24.3263 34.6903 24.1816 34.2693C23.9635 33.6348 23.9322 33.4647 23.9986 33.2743C24.1635 32.8012 24.7436 32.6551 25.087 33.0001C25.1895 33.1031 25.3741 33.4727 25.4972 33.8213C25.6202 34.1699 25.7504 34.4734 25.7865 34.4957C25.9443 34.5932 27.9565 33.5095 28.8086 32.8683C29.0341 32.6985 29.2187 32.5498 29.2187 32.5379C29.2187 32.5259 28.9936 32.2455 28.7186 31.9146C28.1723 31.2576 28.0989 31.0705 28.2479 30.7161C28.3625 30.4436 28.5709 30.3117 28.8815 30.3152C29.1601 30.3184 29.2382 30.3809 29.8454 31.0883L30.3436 31.6685L31.0047 30.9711C31.5753 30.3691 32.892 28.7081 32.8891 28.594C32.8886 28.5725 32.6074 28.3995 32.2643 28.2094C31.4966 27.7842 31.3707 27.6512 31.3707 27.2659C31.3707 26.8996 31.5657 26.6619 31.9211 26.5953C32.1383 26.5545 32.2946 26.6123 32.8915 26.9538C33.2827 27.1777 33.6151 27.3484 33.6301 27.3329C33.7897 27.1691 34.5812 25.1166 34.8001 24.299L34.9861 23.6039L34.6219 23.5272C34.4216 23.485 34.0883 23.4257 33.8811 23.3953C33.3537 23.3181 33.0468 23.0464 33.0468 22.6565C33.0468 22.419 33.096 22.3165 33.2872 22.1556C33.5709 21.9169 33.5683 21.9171 34.464 22.0809C34.8476 22.1511 35.1787 22.1912 35.1999 22.1701C35.2993 22.0707 35.3767 20.0317 35.3131 19.1879C35.2747 18.68 35.2283 18.2495 35.21 18.231C35.1915 18.2127 34.8182 18.2594 34.3803 18.3349C33.6736 18.4568 33.5612 18.4593 33.3797 18.3573C33.1111 18.2063 32.9715 17.8466 33.0581 17.5287C33.1401 17.2277 33.4238 17.0835 34.1797 16.9587C35.073 16.8112 35.0143 16.893 34.8005 16.0939C34.4932 14.9456 33.8632 13.4423 33.2615 12.4221C32.9479 11.8902 32.2459 10.8596 32.1972 10.8596C32.1701 10.8596 30.1546 12.8548 27.7183 15.2932L23.2888 19.7268L23.2906 20.193L23.2924 20.6593L23.9065 21.2989C24.7118 22.1379 24.8781 22.4569 24.8783 23.1643C24.8788 24.4182 24.0273 25.2697 22.7734 25.2692C22.0647 25.269 21.7218 25.0915 20.8984 24.2987L20.2734 23.6969L19.7913 23.7041L19.3091 23.7112L18.6881 24.3155C17.9453 25.0384 17.4258 25.3116 16.7968 25.3102C15.9963 25.3085 15.2967 24.8664 14.9285 24.1294C14.4415 23.1551 14.6515 22.3765 15.6922 21.2977L16.3033 20.6643L16.2961 20.1762L16.289 19.6882L11.8752 15.2739C9.44763 12.846 7.44138 10.8596 7.41693 10.8596C7.39247 10.8596 7.19497 11.1145 6.97818 11.426ZM19.3865 18.1323C18.0465 18.391 17.2904 19.9202 17.9027 21.133C18.6897 22.6918 20.8765 22.7041 21.6691 21.1543C22.4674 19.5934 21.1121 17.7991 19.3865 18.1323ZM16.4462 22.5773C15.9797 23.051 15.9288 23.3864 16.2713 23.7289C16.6167 24.0744 16.9536 24.0214 17.4279 23.547L17.8186 23.1563L17.3343 22.672C17.0679 22.4057 16.8455 22.1877 16.84 22.1877C16.8345 22.1877 16.6573 22.363 16.4462 22.5773ZM22.2144 22.697L21.7336 23.1862L22.0191 23.459C22.5636 23.9791 22.924 24.0414 23.2872 23.6781C23.6325 23.3329 23.5982 23.0505 23.1533 22.575C22.9541 22.362 22.7695 22.1923 22.7432 22.1978C22.7168 22.2034 22.4789 22.428 22.2144 22.697Z" fill="#002724"/>
</g>
<defs>
<clipPath id="clip0_145_10609">
<rect width="40" height="40" fill="white"/>
</clipPath>
</defs>
</svg>
