<svg width="32" height="32" viewBox="0 0 32 32" fill="none" xmlns="http://www.w3.org/2000/svg">
<path d="M1.33111 29.333C1.33111 30.053 1.93111 30.6663 2.66444 30.6663H19.9978C20.7444 30.6663 21.3311 30.053 21.3311 29.333V27.9997H1.33111V29.333ZM11.3311 11.9997C6.33111 11.9997 1.33111 14.6663 1.33111 19.9997H21.3311C21.3311 14.6663 16.3311 11.9997 11.3311 11.9997ZM4.82444 17.333C6.30444 15.2663 9.45111 14.6663 11.3311 14.6663C13.2111 14.6663 16.3578 15.2663 17.8378 17.333H4.82444ZM1.33111 22.6663H21.3311V25.333H1.33111V22.6663ZM23.9978 6.66634V1.33301H21.3311V6.66634H14.6644L14.9711 9.33301H27.7178L25.8511 27.9997H23.9978V30.6663H26.2911C27.4111 30.6663 28.3311 29.7997 28.4644 28.7063L30.6644 6.66634H23.9978Z" fill="#E0E0E0"/>
</svg>
