<svg width="32" height="32" viewBox="0 0 32 32" fill="none" xmlns="http://www.w3.org/2000/svg">
<path d="M18.6572 13.1987V10.932C19.3905 10.6209 20.1407 10.3876 20.9079 10.232C21.675 10.0765 22.4803 9.9987 23.3239 9.9987C23.9016 9.9987 24.4683 10.0431 25.0239 10.132C25.5794 10.2209 26.1239 10.332 26.6572 10.4654V12.5987C26.1239 12.3987 25.5847 12.2489 25.0399 12.1494C24.495 12.0498 23.923 11.9996 23.3239 11.9987C22.4794 11.9987 21.6683 12.1045 20.8905 12.316C20.1127 12.5276 19.3683 12.8218 18.6572 13.1987ZM18.6572 20.532V18.2654C19.3905 17.9543 20.1407 17.7209 20.9079 17.5654C21.675 17.4098 22.4803 17.332 23.3239 17.332C23.9016 17.332 24.4683 17.3765 25.0239 17.4654C25.5794 17.5543 26.1239 17.6654 26.6572 17.7987V19.932C26.1239 19.732 25.5847 19.5818 25.0399 19.4814C24.495 19.3809 23.923 19.3311 23.3239 19.332C22.4794 19.332 21.6683 19.432 20.8905 19.632C20.1127 19.832 19.3683 20.132 18.6572 20.532ZM18.6572 16.8654V14.5987C19.3905 14.2876 20.1407 14.0543 20.9079 13.8987C21.675 13.7431 22.4803 13.6654 23.3239 13.6654C23.9016 13.6654 24.4683 13.7098 25.0239 13.7987C25.5794 13.8876 26.1239 13.9987 26.6572 14.132V16.2654C26.1239 16.0654 25.5847 15.9151 25.0399 15.8147C24.495 15.7143 23.923 15.6645 23.3239 15.6654C22.4794 15.6654 21.6683 15.7711 20.8905 15.9827C20.1127 16.1943 19.3683 16.4885 18.6572 16.8654ZM8.65719 21.332C9.70163 21.332 10.7185 21.4489 11.7079 21.6827C12.6972 21.9165 13.6803 22.2663 14.6572 22.732V9.5987C13.7461 9.06536 12.7794 8.66536 11.7572 8.3987C10.735 8.13203 9.70163 7.9987 8.65719 7.9987C7.85719 7.9987 7.06252 8.07648 6.27319 8.23203C5.48385 8.38759 4.72296 8.62092 3.99052 8.93203V22.132C4.7683 21.8654 5.54074 21.6654 6.30785 21.532C7.07496 21.3987 7.85808 21.332 8.65719 21.332ZM17.3239 22.732C18.3016 22.2654 19.2852 21.9156 20.2745 21.6827C21.2639 21.4498 22.2803 21.3329 23.3239 21.332C24.1239 21.332 24.9074 21.3987 25.6745 21.532C26.4416 21.6654 27.2136 21.8654 27.9905 22.132V8.93203C27.2572 8.62092 26.4959 8.38759 25.7065 8.23203C24.9172 8.07648 24.123 7.9987 23.3239 7.9987C22.2794 7.9987 21.2461 8.13203 20.2239 8.3987C19.2016 8.66536 18.235 9.06536 17.3239 9.5987V22.732ZM15.9905 26.6654C14.9239 25.8209 13.7683 25.1654 12.5239 24.6987C11.2794 24.232 9.99052 23.9987 8.65719 23.9987C7.72385 23.9987 6.80741 24.1209 5.90785 24.3654C5.0083 24.6098 4.14696 24.9543 3.32385 25.3987C2.85719 25.6431 2.40741 25.632 1.97452 25.3654C1.54163 25.0987 1.32474 24.7098 1.32385 24.1987V8.13203C1.32385 7.88759 1.38519 7.65425 1.50785 7.43203C1.63052 7.20981 1.81363 7.04314 2.05719 6.93203C3.07941 6.3987 4.14608 5.9987 5.25719 5.73203C6.3683 5.46536 7.50163 5.33203 8.65719 5.33203C9.94608 5.33203 11.2074 5.4987 12.4412 5.83203C13.675 6.16536 14.8581 6.66536 15.9905 7.33203C17.1239 6.66536 18.3074 6.16536 19.5412 5.83203C20.775 5.4987 22.0359 5.33203 23.3239 5.33203C24.4794 5.33203 25.6127 5.46536 26.7239 5.73203C27.835 5.9987 28.9016 6.3987 29.9239 6.93203C30.1683 7.04314 30.3519 7.20981 30.4745 7.43203C30.5972 7.65425 30.6581 7.88759 30.6572 8.13203V24.1987C30.6572 24.7098 30.4407 25.0987 30.0079 25.3654C29.575 25.632 29.1247 25.6431 28.6572 25.3987C27.835 24.9543 26.9741 24.6098 26.0745 24.3654C25.175 24.1209 24.2581 23.9987 23.3239 23.9987C21.9905 23.9987 20.7016 24.232 19.4572 24.6987C18.2127 25.1654 17.0572 25.8209 15.9905 26.6654Z" fill="#E0E0E0"/>
</svg>
