<svg width="32" height="32" viewBox="0 0 32 32" fill="none" xmlns="http://www.w3.org/2000/svg">
<path d="M26.6652 13.3324C26.6652 12.9788 26.5247 12.6396 26.2746 12.3896C26.0246 12.1395 25.6854 11.9991 25.3318 11.9991C24.9782 11.9991 24.6391 12.1395 24.389 12.3896C24.139 12.6396 23.9985 12.9788 23.9985 13.3324H26.6652ZM7.99849 13.3324C7.99849 12.9788 7.85801 12.6396 7.60797 12.3896C7.35792 12.1395 7.01878 11.9991 6.66516 11.9991C6.31154 11.9991 5.9724 12.1395 5.72235 12.3896C5.4723 12.6396 5.33182 12.9788 5.33182 13.3324H7.99849ZM27.0558 16.9417C27.3073 17.1846 27.6441 17.319 27.9937 17.316C28.3433 17.3129 28.6777 17.1727 28.9249 16.9255C29.1721 16.6783 29.3124 16.3439 29.3154 15.9943C29.3184 15.6447 29.184 15.3079 28.9412 15.0564L27.0558 16.9417ZM15.9985 3.99906L16.9412 3.0564C16.6911 2.80644 16.352 2.66602 15.9985 2.66602C15.6449 2.66602 15.3059 2.80644 15.0558 3.0564L15.9985 3.99906ZM3.05582 15.0564C2.92848 15.1794 2.8269 15.3265 2.75702 15.4892C2.68714 15.6519 2.65036 15.8268 2.64882 16.0039C2.64729 16.1809 2.68102 16.3565 2.74806 16.5203C2.8151 16.6842 2.91411 16.8331 3.0393 16.9583C3.16449 17.0834 3.31336 17.1825 3.47722 17.2495C3.64108 17.3165 3.81665 17.3503 3.99369 17.3487C4.17073 17.3472 4.34569 17.3104 4.50836 17.2405C4.67104 17.1707 4.81816 17.0691 4.94116 16.9417L3.05582 15.0564ZM9.33182 29.3324H22.6652V26.6657H9.33182V29.3324ZM26.6652 25.3324V13.3324H23.9985V25.3324H26.6652ZM7.99849 25.3324V13.3324H5.33182V25.3324H7.99849ZM28.9412 15.0564L16.9412 3.0564L15.0558 4.94173L27.0558 16.9417L28.9412 15.0564ZM15.0558 3.0564L3.05582 15.0564L4.94116 16.9417L16.9412 4.94173L15.0558 3.0564ZM22.6652 29.3324C23.726 29.3324 24.7434 28.911 25.4936 28.1608C26.2437 27.4107 26.6652 26.3933 26.6652 25.3324H23.9985C23.9985 25.686 23.858 26.0252 23.608 26.2752C23.3579 26.5253 23.0188 26.6657 22.6652 26.6657V29.3324ZM9.33182 26.6657C8.9782 26.6657 8.63906 26.5253 8.38901 26.2752C8.13897 26.0252 7.99849 25.686 7.99849 25.3324H5.33182C5.33182 26.3933 5.75325 27.4107 6.5034 28.1608C7.25354 28.911 8.27096 29.3324 9.33182 29.3324V26.6657Z" fill="#E0E0E0"/>
</svg>
