<svg width="28" height="38" viewBox="0 0 28 38" fill="none" xmlns="http://www.w3.org/2000/svg">
<path fill-rule="evenodd" clip-rule="evenodd" d="M24.1257 0.851453C23.4342 1.69183 22.3945 2.65548 21.5931 3.19905C20.8821 3.68139 19.3537 4.40523 18.3568 4.73177C17.8163 4.90886 16.0629 5.4122 14.4603 5.85039C10.8107 6.84827 9.61306 7.25073 8.07631 7.99567C6.3514 8.83192 5.26859 9.5912 3.99256 10.859C1.95359 12.885 0.782654 15.1194 0.184716 18.1249C-0.0799401 19.4552 -0.0559403 22.6475 0.229341 24.055C0.462216 25.2043 0.838904 26.4313 1.22872 27.3105L1.47725 27.8711L2.12937 26.6271C3.64353 23.7385 5.1829 21.6756 7.53003 19.3897C9.64428 17.3306 11.8248 15.7531 14.1408 14.6071L14.7342 14.3135L14.1248 14.8509C12.9955 15.8468 10.3241 18.5855 9.42237 19.6718C5.80437 24.0305 3.27462 28.6512 1.52497 34.0968C0.962278 35.848 0.933966 36.0429 1.16553 36.5663C1.39325 37.0811 1.8214 37.4005 2.36618 37.4619C3.16081 37.5515 3.78828 37.0447 4.05097 36.1011C4.5424 34.3358 5.75422 31.1011 5.97518 30.9645C6.02065 30.9364 6.59675 31.0858 7.25534 31.2966C12.6337 33.0172 17.2928 32.4777 20.98 29.7076C24.0562 27.3964 26.2048 24.11 27.2006 20.1931C27.7654 17.971 27.8597 17.0586 27.8547 13.8593C27.8502 10.8219 27.7755 9.95448 27.2926 7.32264C26.8794 5.07011 25.692 0.787328 25.3167 0.195203C25.0836 -0.172485 24.873 -0.0565159 24.1257 0.851453Z" fill="#002724"/>
</svg>
