<svg width="20" height="22" viewBox="0 0 20 22" fill="none" xmlns="http://www.w3.org/2000/svg">
<path d="M4.368 4.73405H12.3781C12.4747 4.73405 12.5673 4.69569 12.6356 4.62741C12.7039 4.55913 12.7422 4.46652 12.7422 4.36996C12.7422 4.27339 12.7039 4.18078 12.6356 4.1125C12.5673 4.04422 12.4747 4.00586 12.3781 4.00586H4.368C4.27144 4.00586 4.17883 4.04422 4.11055 4.1125C4.04227 4.18078 4.00391 4.27339 4.00391 4.36996C4.00391 4.46652 4.04227 4.55913 4.11055 4.62741C4.17883 4.69569 4.27144 4.73405 4.368 4.73405Z" fill="#E0C0AB"/>
<path d="M4.368 6.91765H12.3781C12.4747 6.91765 12.5673 6.87929 12.6356 6.811C12.7039 6.74272 12.7422 6.65011 12.7422 6.55355C12.7422 6.45699 12.7039 6.36438 12.6356 6.29609C12.5673 6.22781 12.4747 6.18945 12.3781 6.18945H4.368C4.27144 6.18945 4.17883 6.22781 4.11055 6.29609C4.04227 6.36438 4.00391 6.45699 4.00391 6.55355C4.00391 6.65011 4.04227 6.74272 4.11055 6.811C4.17883 6.87929 4.27144 6.91765 4.368 6.91765Z" fill="#E0C0AB"/>
<path d="M4.368 9.10319H12.3781C12.4747 9.10319 12.5673 9.06483 12.6356 8.99655C12.7039 8.92827 12.7422 8.83566 12.7422 8.7391C12.7422 8.64253 12.7039 8.54992 12.6356 8.48164C12.5673 8.41336 12.4747 8.375 12.3781 8.375H4.368C4.27144 8.375 4.17883 8.41336 4.11055 8.48164C4.04227 8.54992 4.00391 8.64253 4.00391 8.7391C4.00391 8.83566 4.04227 8.92827 4.11055 8.99655C4.17883 9.06483 4.27144 9.10319 4.368 9.10319Z" fill="#E0C0AB"/>
<path d="M4.368 11.2868H12.3781C12.4747 11.2868 12.5673 11.2484 12.6356 11.1801C12.7039 11.1119 12.7422 11.0193 12.7422 10.9227C12.7422 10.8261 12.7039 10.7335 12.6356 10.6652C12.5673 10.597 12.4747 10.5586 12.3781 10.5586H4.368C4.27144 10.5586 4.17883 10.597 4.11055 10.6652C4.04227 10.7335 4.00391 10.8261 4.00391 10.9227C4.00391 11.0193 4.04227 11.1119 4.11055 11.1801C4.17883 11.2484 4.27144 11.2868 4.368 11.2868Z" fill="#E0C0AB"/>
<path d="M4.368 13.4723H7.28077C7.37734 13.4723 7.46995 13.434 7.53823 13.3657C7.60651 13.2974 7.64487 13.2048 7.64487 13.1082C7.64487 13.0117 7.60651 12.9191 7.53823 12.8508C7.46995 12.7825 7.37734 12.7441 7.28077 12.7441H4.368C4.27144 12.7441 4.17883 12.7825 4.11055 12.8508C4.04227 12.9191 4.00391 13.0117 4.00391 13.1082C4.00391 13.2048 4.04227 13.2974 4.11055 13.3657C4.17883 13.434 4.27144 13.4723 4.368 13.4723Z" fill="#E0C0AB"/>
<path d="M18.7575 8.60246C18.5075 8.45628 18.2097 8.41525 17.9295 8.48839C17.6493 8.56152 17.4095 8.74283 17.2629 8.99254L16.3849 10.4905V1.45639C16.3849 1.35982 16.3465 1.26721 16.2782 1.19893C16.21 1.13065 16.1174 1.09229 16.0208 1.09229H13.2588C13.2588 1.09229 12.1648 -0.0218458 12.121 0.0156561C12.0869 0.00528951 12.0514 1.40708e-05 12.0157 0H1.45694C1.36037 0 1.26776 0.03836 1.19948 0.106641C1.1312 0.174923 1.09284 0.267532 1.09284 0.364096V1.50249C0.780094 1.58311 0.503016 1.7654 0.305186 2.02069C0.107357 2.27599 0 2.5898 0 2.91277C0 3.23574 0.107357 3.54955 0.305186 3.80485C0.503016 4.06014 0.780094 4.24243 1.09284 4.32305V5.14345C0.780094 5.22407 0.503016 5.40637 0.305186 5.66166C0.107357 5.91695 0 6.23076 0 6.55373C0 6.87671 0.107357 7.19052 0.305186 7.44581C0.503016 7.7011 0.780094 7.8834 1.09284 7.96402V8.78442C0.780094 8.86504 0.503016 9.04733 0.305186 9.30262C0.107357 9.55792 0 9.87173 0 10.1947C0 10.5177 0.107357 10.8315 0.305186 11.0868C0.503016 11.3421 0.780094 11.5244 1.09284 11.605V12.0613C0.780094 12.1419 0.503016 12.3242 0.305186 12.5795C0.107357 12.8348 0 13.1486 0 13.4716C0 13.7945 0.107357 14.1083 0.305186 14.3636C0.503016 14.6189 0.780094 14.8012 1.09284 14.8818V17.1125C1.09284 17.2091 1.1312 17.3017 1.19948 17.37C1.26776 17.4383 1.36037 17.4766 1.45694 17.4766H1.82103V18.5689C1.82103 18.6655 1.85939 18.7581 1.92768 18.8264C1.99596 18.8947 2.08857 18.933 2.18513 18.933H11.4374L11.1879 19.3587C11.1655 19.3969 11.1504 19.4389 11.1432 19.4826C11.1429 19.4847 11.1423 19.4864 11.1419 19.4886L11.141 19.4945V19.4959L10.8498 21.4274C10.8389 21.4994 10.8499 21.5729 10.8812 21.6386C10.9126 21.7043 10.9629 21.759 11.0257 21.7958C11.0885 21.8326 11.1609 21.8498 11.2335 21.845C11.3061 21.8403 11.3756 21.8139 11.4331 21.7693L12.9818 20.5669C13.081 20.4898 13.1295 20.4427 13.1218 20.3794L13.9694 18.933H16.0208C16.1174 18.933 16.21 18.8947 16.2782 18.8264C16.3465 18.7581 16.3849 18.6655 16.3849 18.5689V14.8113L19.1475 10.0971C19.2936 9.84708 19.3346 9.54934 19.2615 9.26914C19.1884 8.98895 19.0072 8.74919 18.7575 8.60246ZM18.1133 9.19252C18.183 9.17434 18.2565 9.17723 18.3245 9.20082C18.3926 9.22441 18.4521 9.26765 18.4955 9.32506C18.539 9.38248 18.5645 9.4515 18.5687 9.52338C18.5729 9.59527 18.5558 9.6668 18.5194 9.72893L18.3353 10.043L17.7072 9.67477L17.8913 9.36074C17.9154 9.31942 17.9474 9.28327 17.9855 9.2544C18.0236 9.22553 18.067 9.20449 18.1133 9.19252ZM12.6284 19.781L12.0003 19.4128L16.7866 11.2455L17.4146 11.6137L12.6284 19.781ZM12.3798 1.24312L13.6854 2.54867H12.3798V1.24312ZM17.1548 10.6172L17.3388 10.3032L17.9671 10.6714L17.783 10.9854L17.1548 10.6172ZM15.6567 1.82048V11.6511C15.6567 11.6747 15.659 11.6983 15.6636 11.7214L14.9285 12.9758V2.91277C14.9286 2.86503 14.9192 2.81775 14.9009 2.77364C14.8827 2.72952 14.8559 2.68943 14.8222 2.65567L14.8219 2.65531L13.987 1.82048H15.6567ZM1.82103 0.728193H11.6516V2.91277C11.6516 3.00934 11.69 3.10194 11.7583 3.17023C11.8266 3.23851 11.9192 3.27687 12.0157 3.27687H14.2003V14.2184L12.7176 16.7484H1.82103V14.8819C2.0731 14.817 2.30314 14.6856 2.48718 14.5016C2.67122 14.3175 2.80252 14.0875 2.8674 13.8354C2.89147 13.7418 2.87739 13.6426 2.82826 13.5594C2.77914 13.4762 2.69898 13.416 2.60543 13.3919C2.55912 13.38 2.5109 13.3773 2.46355 13.384C2.41619 13.3908 2.37062 13.4067 2.32944 13.4311C2.24628 13.4802 2.18603 13.5603 2.16197 13.6539C2.13784 13.7475 2.09525 13.8354 2.03671 13.9123C1.97816 13.9892 1.90484 14.0537 1.82103 14.1019V11.605C2.0731 11.5401 2.30314 11.4088 2.48718 11.2247C2.67122 11.0407 2.80252 10.8106 2.8674 10.5585C2.89147 10.465 2.87739 10.3657 2.82826 10.2825C2.77914 10.1994 2.69898 10.1391 2.60543 10.1151C2.51189 10.091 2.41261 10.1051 2.32944 10.1542C2.24628 10.2033 2.18603 10.2835 2.16197 10.377C2.13784 10.4706 2.09525 10.5585 2.03671 10.6354C1.97816 10.7124 1.90484 10.7768 1.82103 10.825V7.96406C2.0731 7.89915 2.30314 7.76782 2.48718 7.58375C2.67122 7.39969 2.80252 7.16963 2.8674 6.91756C2.89147 6.82401 2.87739 6.72473 2.82826 6.64157C2.77914 6.5584 2.69898 6.49816 2.60543 6.47409C2.51189 6.45002 2.41261 6.4641 2.32944 6.51323C2.24628 6.56236 2.18603 6.64251 2.16197 6.73606C2.13784 6.82968 2.09525 6.91753 2.03671 6.99447C1.97816 7.0714 1.90484 7.13587 1.82103 7.18408V4.3231C2.0731 4.25819 2.30314 4.12685 2.48718 3.94279C2.67122 3.75873 2.80252 3.52867 2.8674 3.27659C2.89147 3.18305 2.87739 3.08377 2.82826 3.0006C2.77914 2.91744 2.69898 2.85719 2.60543 2.83312C2.51189 2.80906 2.41261 2.82313 2.32944 2.87226C2.24628 2.92139 2.18603 3.00155 2.16197 3.09509C2.13784 3.18871 2.09525 3.27657 2.03671 3.3535C1.97816 3.43044 1.90484 3.4949 1.82103 3.54311V0.728193ZM0.728746 2.91277C0.728916 2.78511 0.762645 2.65974 0.826548 2.54923C0.890452 2.43871 0.982286 2.34694 1.09284 2.28311V3.54243C0.982286 3.4786 0.890452 3.38683 0.826548 3.27631C0.762645 3.1658 0.728916 3.04043 0.728746 2.91277ZM0.728746 6.55373C0.728916 6.42608 0.762645 6.3007 0.826548 6.19019C0.890452 6.07968 0.982286 5.98791 1.09284 5.92408V7.18339C0.982286 7.11956 0.890452 7.02779 0.826548 6.91728C0.762645 6.80677 0.728916 6.68139 0.728746 6.55373ZM0.728746 10.1947C0.728916 10.067 0.762645 9.94167 0.826548 9.83115C0.890452 9.72064 0.982286 9.62887 1.09284 9.56504V10.8244C0.982286 10.7605 0.890452 10.6688 0.826548 10.5582C0.762645 10.4477 0.728916 10.3224 0.728746 10.1947ZM0.728746 13.4716C0.728916 13.3439 0.762645 13.2185 0.826548 13.108C0.890452 12.9975 0.982286 12.9057 1.09284 12.8419V14.1012C0.982286 14.0374 0.890452 13.9456 0.826548 13.8351C0.762645 13.7246 0.728916 13.5992 0.728746 13.4716ZM2.54923 18.2048V17.4766H12.2909L11.8641 18.2048H2.54923ZM11.7818 20.1289L12.1104 20.3214L11.7053 20.6358L11.7818 20.1289ZM15.6567 18.2048H14.396L15.6567 16.0539V18.2048Z" fill="#E0C0AB"/>
</svg>
