<svg width="42" height="42" viewBox="0 0 42 42" fill="none" xmlns="http://www.w3.org/2000/svg">
<path fill-rule="evenodd" clip-rule="evenodd" d="M19.8627 0.567424C18.1225 3.56011 14.3107 10.185 14.3107 10.2165C14.3107 10.2384 16.9897 10.2563 20.2639 10.2563C23.5381 10.2563 26.217 10.2375 26.217 10.2146C26.217 10.151 20.4036 0.0959551 20.3141 0.00492388C20.2712 -0.0388574 20.068 0.214268 19.8627 0.567424ZM10.7808 2.09864C9.63337 2.39949 8.4914 3.10449 7.70568 3.99727C7.2254 4.54299 6.5295 5.83992 6.5295 6.18942C6.5295 6.33989 6.27946 6.68227 5.76712 7.23324C2.68481 10.5484 0.990747 13.874 0.233622 18.0963C-0.153003 20.2524 -0.0431284 24.381 0.440528 25.8746C0.619309 26.427 1.30143 26.5336 1.61306 26.058C1.74956 25.8497 1.7459 25.7392 1.56712 24.6868C0.556684 18.7373 2.50247 12.4525 6.64096 8.29852L7.23712 7.70011L8.17528 7.71755C8.95143 7.73199 9.24234 7.69411 9.86053 7.49808C12.0864 6.79214 13.8824 4.78458 13.9631 2.9122C13.9791 2.54039 13.9444 2.42771 13.7707 2.28689C13.2869 1.89502 11.8924 1.80727 10.7808 2.09864ZM25.9953 2.48189C25.7 2.71411 25.657 3.20846 25.9123 3.43599C26.0025 3.51642 26.4982 3.73861 27.0139 3.92967C32.5057 5.96517 36.8829 10.7534 38.4928 16.4865L38.7769 17.4982L38.5092 17.8382C36.9264 19.8483 37.0627 23.2917 38.7977 25.1262C39.3663 25.7273 39.7394 25.9508 40.0461 25.8738C40.1644 25.8441 40.4446 25.6157 40.6687 25.3664C42.4535 23.3811 42.3959 19.829 40.5464 17.8053C40.1996 17.4259 40.0744 17.1962 39.9543 16.7199C38.5425 11.1218 34.8016 6.36464 29.6856 3.66164C28.7159 3.14939 26.6411 2.28755 26.3774 2.28755C26.3031 2.28755 26.1311 2.37502 25.9953 2.48189ZM21.1304 6.19261C20.8085 6.49074 20.3867 6.88196 20.1929 7.06196L19.8408 7.38933L19.3462 6.90089C18.7543 6.31636 18.3899 6.2498 18.0622 6.66633C17.7622 7.04789 17.8792 7.30242 18.7546 8.17036C19.8364 9.24296 19.7988 9.24811 21.3339 7.81205C22.0617 7.13124 22.5682 6.58308 22.6051 6.43617C22.691 6.09417 22.3959 5.71814 22.0117 5.67999C21.7621 5.65514 21.6238 5.73558 21.1304 6.19261ZM13.3372 11.8735C12.9349 12.5063 10.092 17.5007 10.092 17.5748C10.092 17.6281 11.9498 17.6625 14.8264 17.6625H19.5607V14.6625V11.6625H16.516H13.4713L13.3372 11.8735ZM20.967 14.6612V17.6625H25.7507H30.5343L30.3944 17.4047C30.3174 17.263 29.5448 15.9235 28.6776 14.4282L27.1007 11.7094L24.0338 11.6847L20.967 11.66V14.6612ZM16.4985 13.8188C16.0006 14.2829 15.5512 14.6625 15.5001 14.6625C15.4489 14.6625 15.1839 14.4516 14.9113 14.1938C14.3561 13.6686 14.1263 13.6197 13.7909 13.9552C13.4087 14.3374 13.4857 14.583 14.2359 15.3728C14.9 16.0719 15.2812 16.35 15.5753 16.35C15.6572 16.35 16.2922 15.8189 16.9862 15.1696C18.0939 14.1336 18.2481 13.953 18.2468 13.6931C18.246 13.5302 18.2144 13.3505 18.1765 13.2938C18.0833 13.1542 17.7317 12.975 17.5509 12.975C17.4701 12.975 16.9965 13.3547 16.4985 13.8188ZM25.4929 13.5261C25.1435 13.8292 24.7337 14.2089 24.5823 14.3699C24.4309 14.5308 24.2661 14.6625 24.2164 14.6625C24.1665 14.6625 23.9027 14.4516 23.6301 14.1938C23.0827 13.676 22.7773 13.6022 22.467 13.9125C22.3548 14.0248 22.2795 14.225 22.2795 14.4112C22.2795 14.679 22.3953 14.8357 23.1112 15.5362C23.5732 15.9883 24.0212 16.3485 24.119 16.3468C24.4176 16.3411 24.6585 16.1541 25.8325 15.0166C26.7038 14.1725 26.967 13.8616 26.967 13.6765C26.967 13.389 26.5837 12.975 26.3174 12.975C26.2132 12.975 25.8422 13.223 25.4929 13.5261ZM9.11925 19.1851C8.86106 19.5921 5.85656 24.8156 5.80828 24.9417C5.7674 25.048 6.88968 25.0688 12.6614 25.0688H19.5634L19.5386 22.0454L19.5139 19.0219L14.3838 18.9976L9.25359 18.9735L9.11925 19.1851ZM21.0303 19.0367C20.9955 19.0716 20.967 20.443 20.967 22.0845V25.0688H27.8576C31.6475 25.0688 34.7473 25.0372 34.7462 24.9985C34.7451 24.9598 33.9747 23.5993 33.0344 21.975L31.3247 19.0219L26.2091 18.9977C23.3956 18.9843 21.0651 19.002 21.0303 19.0367ZM14.8264 20.5589C14.6717 20.6561 14.2509 21.0356 13.8914 21.4022C13.5319 21.7688 13.1984 22.0688 13.1504 22.0688C13.1025 22.0688 12.8402 21.8579 12.5676 21.6C12.0399 21.1009 11.7814 21.0279 11.4254 21.2773C11.2728 21.3841 11.217 21.5176 11.217 21.7759C11.217 22.096 11.2939 22.2038 12.0487 22.9425C12.554 23.4369 12.9568 23.7563 13.075 23.7563C13.4748 23.7563 15.9045 21.4278 15.9045 21.0448C15.9045 20.7986 15.5089 20.3812 15.2759 20.3817C15.1834 20.3819 14.9811 20.4615 14.8264 20.5589ZM27.7773 21.0147C27.409 21.3631 26.9932 21.7486 26.8536 21.8713L26.5995 22.0945L26.0725 21.6129C25.4752 21.0669 25.2038 21.0109 24.8534 21.3615C24.4669 21.7479 24.5463 21.9342 25.5076 22.8955C26.3077 23.6955 26.4166 23.7736 26.6506 23.7149C26.7952 23.6786 27.4388 23.1519 28.11 22.5206C29.1898 21.505 29.3107 21.3593 29.3107 21.0737C29.3107 20.6899 29.0346 20.3813 28.6913 20.3813C28.5183 20.3813 28.2517 20.566 27.7773 21.0147ZM3.20962 29.4047L1.46597 32.4282L10.8958 32.4521C16.0822 32.4652 24.5413 32.4652 29.6937 32.4521L39.0618 32.4282L37.3181 29.4047L35.5746 26.3813H20.2639H4.95318L3.20962 29.4047ZM20.9321 28.518C19.7822 29.6205 19.9211 29.577 19.3308 29.0188C18.75 28.4695 18.4607 28.4103 18.1034 28.7677C17.7311 29.1399 17.8047 29.3338 18.6467 30.1994C19.4784 31.0545 19.7215 31.2057 20.0529 31.0742C20.169 31.0282 20.8027 30.4703 21.4612 29.8344C22.7556 28.5845 22.8372 28.4305 22.4243 28.0177C22.0288 27.6222 21.7793 27.7058 20.9321 28.518ZM32.2987 36.2427C30.2857 37.9324 27.6247 39.2834 24.9451 39.976C21.8136 40.7854 17.7273 40.724 14.9517 39.8256C14.538 39.6917 14.4964 39.646 14.1783 38.9761C13.5734 37.7025 12.2556 36.6103 10.6635 36.063C9.38099 35.6221 7.36612 35.7634 6.79537 36.3342C6.51553 36.614 6.61284 37.2644 7.0634 38.1252C7.70934 39.3595 9.05653 40.4691 10.467 40.9285C11.2818 41.1939 12.7947 41.2676 13.455 41.074C13.908 40.9412 13.9747 40.9457 14.7054 41.1582C20.6902 42.8981 27.4776 41.6136 32.513 37.7882C33.6603 36.9165 33.9045 36.6539 33.9045 36.2912C33.9045 35.9017 33.6653 35.6625 33.2758 35.6625C33.0624 35.6625 32.8147 35.8096 32.2987 36.2427Z" fill="#002724"/>
</svg>
