<svg width="56" height="56" viewBox="0 0 56 56" fill="none" xmlns="http://www.w3.org/2000/svg">
<g clip-path="url(#clip0_2154_4245)">
<path d="M14.6382 -0.0153146C14.769 -0.0158022 14.8997 -0.0162898 15.0344 -0.0167921C15.1782 -0.016772 15.322 -0.0167518 15.4702 -0.016731C15.6244 -0.0170919 15.7786 -0.0174995 15.9328 -0.0179496C16.357 -0.0190451 16.7812 -0.019452 17.2054 -0.0197422C17.6628 -0.0201693 18.1201 -0.0212169 18.5775 -0.0221717C19.6823 -0.0243332 20.7872 -0.0254345 21.892 -0.0264076C22.4125 -0.0268871 22.9329 -0.027474 23.4534 -0.028047C25.1837 -0.0299078 26.9141 -0.031493 28.6444 -0.0322851C29.0934 -0.032494 29.5425 -0.0327041 29.9915 -0.032918C30.1031 -0.0329709 30.2147 -0.0330238 30.3297 -0.0330783C32.1369 -0.0339858 33.9442 -0.0367565 35.7514 -0.0403096C37.6073 -0.0439287 39.4632 -0.0458969 41.3192 -0.0462462C42.361 -0.0464829 43.4028 -0.0474373 44.4447 -0.0502342C45.3321 -0.0526111 46.2195 -0.0534876 47.107 -0.0524253C47.5595 -0.051929 48.012 -0.0521312 48.4645 -0.0542586C48.8794 -0.0561926 49.2943 -0.0560735 49.7093 -0.0543792C49.9291 -0.0539982 50.1488 -0.0557587 50.3685 -0.0576172C51.9477 -0.0464754 53.2924 0.468275 54.4436 1.55796C55.8233 3.01552 56.068 4.60362 56.0592 6.52572C56.0599 6.73158 56.0607 6.93744 56.0618 7.1433C56.064 7.70627 56.0635 8.26921 56.0626 8.83219C56.062 9.44035 56.064 10.0485 56.0657 10.6567C56.0684 11.8468 56.0688 13.037 56.0683 14.2271C56.0679 15.1942 56.0683 16.1613 56.0692 17.1285C56.0694 17.2662 56.0695 17.4039 56.0696 17.5458C56.0699 17.8256 56.0702 18.1053 56.0704 18.3851C56.0721 20.2627 56.073 22.1402 56.0721 24.0178C56.0721 24.0911 56.0721 24.1645 56.072 24.24C56.0718 24.6118 56.0717 24.9835 56.0715 25.3553C56.0714 25.466 56.0714 25.466 56.0714 25.579C56.0713 25.7283 56.0712 25.8776 56.0711 26.0269C56.07 28.3518 56.0717 30.6766 56.0757 33.0015C56.0803 35.6151 56.0826 38.2286 56.0817 40.8421C56.0813 42.2255 56.0819 43.6088 56.0849 44.9921C56.0876 46.1692 56.0879 47.3462 56.0852 48.5232C56.0839 49.1239 56.0837 49.7245 56.0863 50.3251C56.0887 50.8748 56.088 51.4243 56.0849 51.974C56.0844 52.173 56.0849 52.372 56.0866 52.571C56.1003 54.2443 56.1003 54.2443 55.6895 54.7486C55.2016 55.1269 54.8618 55.1921 54.2522 55.1244C53.5489 54.7981 52.9619 54.3315 52.3928 53.8119C52.0598 53.9668 51.778 54.1507 51.4849 54.3716C51.396 54.438 51.3071 54.5044 51.2155 54.5728C51.0309 54.7117 50.8463 54.8507 50.6618 54.9898C49.2266 56.0614 49.2266 56.0614 48.5237 56.0677C48.4303 56.0714 48.337 56.0751 48.2408 56.0788C47.7242 55.9553 47.3492 55.6529 46.9241 55.3431C46.8338 55.278 46.7435 55.2128 46.6504 55.1457C46.3735 54.9442 46.0983 54.7407 45.8235 54.5365C45.7288 54.4664 45.6341 54.3963 45.5366 54.3241C45.3062 54.1536 45.076 53.9828 44.8459 53.8119C44.2 54.1551 43.6458 54.5725 43.0754 55.0287C42.9032 55.166 42.7308 55.303 42.558 55.4397C42.4451 55.53 42.4451 55.53 42.3298 55.6222C41.8238 55.9895 41.417 56.0687 40.7961 56.0523C40.1859 55.9529 39.7489 55.6008 39.2678 55.2337C39.1905 55.1757 39.1132 55.1177 39.0336 55.0579C38.4878 54.6478 37.9465 54.2321 37.4084 53.8119C36.7625 54.1551 36.2083 54.5725 35.6379 55.0287C35.4657 55.166 35.2933 55.303 35.1205 55.4397C35.0076 55.53 35.0076 55.53 34.8923 55.6222C34.4776 55.9233 34.1693 56.0331 33.6555 56.0404C33.5567 56.0435 33.4578 56.0466 33.356 56.0498C32.4804 55.9129 31.751 55.1853 31.0715 54.6595C30.9654 54.578 30.8593 54.4965 30.75 54.4126C30.49 54.2128 30.2303 54.0125 29.9709 53.8119C29.6375 53.9672 29.3537 54.1515 29.0592 54.3716C28.9698 54.438 28.8804 54.5044 28.7883 54.5728C28.6958 54.642 28.6033 54.7112 28.508 54.7826C28.1581 55.0437 27.8074 55.3036 27.4553 55.5619C27.3923 55.609 27.3293 55.6562 27.2644 55.7047C26.7894 56.0453 26.4262 56.103 25.8514 56.0831C25.1786 55.9287 24.6837 55.4893 24.157 55.0648C23.8125 54.7929 23.4526 54.543 23.094 54.2904C22.9643 54.1979 22.8347 54.1053 22.7052 54.0127C22.6124 53.9464 22.5196 53.8801 22.4241 53.8119C22.2758 53.9097 22.1278 54.0077 21.9797 54.1058C21.8893 54.1653 21.799 54.2248 21.7059 54.2861C21.4797 54.4408 21.27 54.6042 21.0569 54.7757C20.631 55.0811 20.2087 55.1547 19.6897 55.1244C19.173 54.9684 18.9433 54.7384 18.6863 54.2666C18.5092 53.8041 18.5393 53.3283 18.5463 52.8393C18.5462 52.7218 18.5461 52.6044 18.5461 52.4833C18.5464 52.0969 18.5498 51.7105 18.5532 51.324C18.554 51.0554 18.5546 50.7867 18.5551 50.5181C18.5568 49.8123 18.561 49.1066 18.5659 48.4008C18.5704 47.6801 18.5724 46.9594 18.5746 46.2387C18.5793 44.8256 18.5866 43.4125 18.5959 41.9994C18.5244 41.9998 18.4529 42.0002 18.3792 42.0006C16.6345 42.0103 14.8898 42.0175 13.145 42.022C12.3013 42.0243 11.4575 42.0273 10.6137 42.0324C9.87781 42.0368 9.14189 42.0396 8.40594 42.0405C8.01672 42.0411 7.62753 42.0424 7.23833 42.0456C6.80245 42.0492 6.36664 42.0492 5.93076 42.049C5.80354 42.0506 5.67633 42.0522 5.54526 42.0538C3.97374 42.046 2.65576 41.4564 1.50609 40.3929C0.480057 39.3037 -0.0517862 37.9755 -0.0394836 36.4902C-0.0399955 36.3932 -0.0405067 36.2962 -0.0410341 36.1962C-0.0423323 35.8744 -0.0413109 35.5526 -0.0402747 35.2308C-0.0407198 34.9988 -0.0413043 34.7667 -0.0420171 34.5347C-0.0435084 33.907 -0.0429342 33.2793 -0.0418919 32.6515C-0.0410594 31.994 -0.0418328 31.3365 -0.0423475 30.679C-0.0429437 29.5756 -0.0421595 28.4722 -0.0405951 27.3688C-0.0388072 26.0929 -0.0393897 24.817 -0.0411943 23.5411C-0.0426825 22.4451 -0.0428946 21.349 -0.0420354 20.2529C-0.0415238 19.5985 -0.0414559 18.944 -0.0425395 18.2896C-0.0434863 17.6749 -0.0428304 17.0603 -0.0409323 16.4456C-0.040498 16.2199 -0.040625 15.9942 -0.0413478 15.7685C-0.0422426 15.4607 -0.0411216 15.153 -0.0394836 14.8453C-0.0402156 14.7557 -0.0409475 14.6661 -0.0417016 14.5738C-0.0365061 14.0716 0.0139012 13.74 0.330308 13.3431C0.810173 13.0268 1.1824 12.945 1.75218 13.015C2.47005 13.3463 3.08907 13.8567 3.72093 14.3275C4.21829 14.0172 4.69247 13.6852 5.15007 13.3188C5.22974 13.2556 5.30941 13.1923 5.39149 13.1272C5.55106 12.9999 5.70953 12.8712 5.86675 12.741C6.46674 12.2647 7.0513 11.9761 7.8336 12.0618C7.90664 12.0899 7.97967 12.1179 8.05492 12.1468C8.16531 12.186 8.16531 12.186 8.27794 12.2259C8.51472 12.349 8.71634 12.4845 8.93221 12.6405C9.00097 12.69 9.06972 12.7396 9.14056 12.7907C9.19286 12.8286 9.24517 12.8665 9.29906 12.9056C9.29809 12.8074 9.29712 12.7091 9.29611 12.6079C9.2873 11.6764 9.28066 10.7449 9.27639 9.8134C9.27412 9.33464 9.27104 8.8559 9.26605 8.37715C9.26126 7.91406 9.25867 7.45099 9.25755 6.98787C9.25675 6.81228 9.25519 6.6367 9.2528 6.46113C9.22787 4.54724 9.66476 2.99116 10.9999 1.56992C11.7581 0.839515 12.559 0.407552 13.5647 0.108741C13.6293 0.0893577 13.6939 0.0699746 13.7604 0.0500041C14.0578 -0.0122786 14.3343 -0.0147888 14.6382 -0.0153146ZM12.0334 3.38999C11.8124 3.70479 11.6351 4.01977 11.4866 4.37437C11.4489 4.46139 11.4113 4.54841 11.3725 4.63808C11.2237 5.19614 11.2379 5.73089 11.2403 6.30608C11.24 6.43537 11.2396 6.56467 11.2393 6.69789C11.2386 7.05592 11.2389 7.41394 11.2396 7.77198C11.2401 8.15851 11.2393 8.54503 11.2387 8.93156C11.2377 9.60136 11.2375 10.2712 11.2378 10.941C11.2381 11.9113 11.2369 12.8816 11.2351 13.8519C11.2323 15.4287 11.2301 17.0056 11.2286 18.5824C11.2285 18.6768 11.2284 18.7711 11.2283 18.8684C11.2271 20.2054 11.2265 21.5424 11.2262 22.8794C11.2262 22.9734 11.2262 23.0675 11.2262 23.1643C11.2261 23.3052 11.2261 23.3052 11.2261 23.4489C11.2257 25.0186 11.2236 26.5883 11.2201 28.158C11.2181 29.1249 11.2174 30.0917 11.2186 31.0586C11.2193 31.7224 11.2184 32.3861 11.2163 33.0499C11.2151 33.432 11.2146 33.8141 11.2161 34.1963C11.2225 36.357 11.1482 38.0683 9.95531 39.9212C9.95531 39.9573 9.95531 39.9934 9.95531 40.0306C12.8067 40.0306 15.6581 40.0306 18.5959 40.0306C18.6032 35.5746 18.6092 31.1187 18.6127 26.6627C18.6131 26.1366 18.6135 25.6105 18.614 25.0843C18.614 24.9796 18.6141 24.8749 18.6142 24.7669C18.6156 23.0712 18.6182 21.3755 18.6213 19.6797C18.6243 17.9396 18.6261 16.1995 18.6268 14.4594C18.6273 13.3858 18.6287 12.3121 18.6313 11.2385C18.6331 10.5021 18.6336 9.76581 18.6332 9.02948C18.633 8.60471 18.6333 8.17995 18.635 7.75519C18.6369 7.29428 18.6363 6.83341 18.6354 6.3725C18.6363 6.23876 18.6373 6.10502 18.6383 5.96723C18.6317 4.72269 18.362 3.8656 17.5022 2.95249C16.6157 2.13871 15.7981 1.89815 14.5995 1.93137C13.5076 2.03736 12.7581 2.58679 12.0334 3.38999ZM19.3616 1.96812C19.4752 2.19657 19.59 2.42381 19.7098 2.64915C19.755 2.73571 19.8003 2.82228 19.8469 2.91148C19.8919 2.99635 19.9369 3.08123 19.9832 3.16868C20.4722 4.29183 20.5026 5.33736 20.4989 6.54335C20.4995 6.7419 20.5003 6.94045 20.5011 7.13899C20.5031 7.68273 20.503 8.22646 20.5026 8.7702C20.5026 9.35725 20.5044 9.94429 20.506 10.5313C20.5085 11.5478 20.5098 12.5643 20.5103 13.5808C20.511 15.0505 20.5135 16.5201 20.5164 17.9898C20.5212 20.3743 20.5244 22.7588 20.5268 25.1434C20.5291 27.4595 20.5321 29.7756 20.536 32.0917C20.5363 32.3059 20.5363 32.3059 20.5367 32.5244C20.5379 33.2409 20.5391 33.9573 20.5404 34.6738C20.5506 40.6156 20.5584 46.5575 20.5647 52.4994C20.8412 52.3662 21.0807 52.2277 21.3371 52.055C21.8241 51.7338 22.1748 51.6864 22.7522 51.7337C23.5024 52.0547 24.1074 52.5124 24.7483 53.0121C24.9398 53.1612 25.1317 53.3098 25.3242 53.4577C25.4499 53.5557 25.4499 53.5557 25.5781 53.6558C25.8186 53.8145 25.9647 53.9034 26.2522 53.9212C26.4914 53.8043 26.4914 53.8043 26.7226 53.6162C26.8115 53.5492 26.9004 53.4822 26.992 53.4132C27.13 53.306 27.13 53.306 27.2707 53.1966C27.4526 53.0585 27.6344 52.9203 27.8163 52.7822C27.9036 52.7155 27.9908 52.6488 28.0806 52.58C28.7412 52.0773 29.1969 51.7321 30.0551 51.6979C30.9629 51.8314 31.7268 52.6455 32.4197 53.1962C32.5186 53.2733 32.6175 53.3504 32.7194 53.4299C32.8086 53.5006 32.8978 53.5712 32.9897 53.644C33.2758 53.827 33.4597 53.9064 33.7991 53.9212C34.0378 53.8067 34.0378 53.8067 34.2524 53.6162C34.3355 53.5492 34.4186 53.4822 34.5042 53.4132C34.5896 53.3418 34.675 53.2703 34.7629 53.1966C36.6555 51.6451 36.6555 51.6451 37.7366 51.7337C38.4491 52.0406 39.0151 52.4583 39.6164 52.9437C40.3406 53.5319 40.3406 53.5319 41.1272 54.0306C41.1817 53.9877 41.2362 53.9447 41.2923 53.9005C41.5446 53.7019 41.7973 53.504 42.05 53.306C42.1357 53.2385 42.2213 53.1709 42.3096 53.1014C44.1645 51.651 44.1645 51.651 45.1741 51.7337C46.1407 52.1004 46.9482 52.8319 47.7375 53.4859C47.812 53.5461 47.8864 53.6063 47.9631 53.6683C48.0252 53.7206 48.0872 53.7729 48.1511 53.8268C48.4332 53.9635 48.5947 53.8953 48.8928 53.8119C49.131 53.6685 49.131 53.6685 49.3538 53.4816C49.4379 53.4148 49.522 53.3481 49.6087 53.2793C49.695 53.2092 49.7814 53.139 49.8703 53.0667C51.5962 51.6835 51.5962 51.6835 52.4659 51.6867C52.9776 51.781 53.3893 52.1045 53.8147 52.39C53.8869 52.4261 53.9591 52.4622 54.0334 52.4994C54.0434 46.4429 54.0512 40.3864 54.0558 34.3299C54.0563 33.615 54.0569 32.9001 54.0575 32.1852C54.0576 32.0428 54.0577 31.9005 54.0578 31.7539C54.0597 29.4489 54.0632 27.1439 54.0672 24.8389C54.0713 22.474 54.0737 20.1092 54.0746 17.7443C54.0752 16.2849 54.0771 14.8255 54.0807 13.366C54.083 12.3655 54.0837 11.3649 54.0831 10.3643C54.0828 9.78688 54.0832 9.20949 54.0856 8.63209C54.0877 8.10324 54.0878 7.57443 54.0863 7.04558C54.0861 6.85449 54.0867 6.66339 54.0881 6.4723C54.0973 5.11498 53.9899 4.04857 53.0174 3.02683C52.2062 2.2304 51.3473 1.92036 50.2155 1.91164C50.0948 1.91292 49.9742 1.91419 49.8498 1.9155C49.6535 1.91494 49.6535 1.91494 49.4532 1.91437C49.0927 1.91378 48.7323 1.91513 48.3719 1.91734C47.9821 1.91924 47.5924 1.91859 47.2026 1.91825C46.5283 1.91803 45.8539 1.91939 45.1796 1.92186C44.2047 1.92542 43.2297 1.92655 42.2547 1.9271C40.6727 1.92806 39.0907 1.93097 37.5087 1.93511C35.9725 1.93913 34.4362 1.94223 32.8999 1.94408C32.8051 1.9442 32.7104 1.94431 32.6127 1.94443C32.1372 1.945 31.6616 1.94556 31.1861 1.9461C27.2446 1.95063 23.3031 1.95833 19.3616 1.96812ZM6.94963 14.4762C6.84932 14.5532 6.749 14.6301 6.64565 14.7094C6.53997 14.7909 6.4343 14.8724 6.32543 14.9564C4.35946 16.4714 4.35946 16.4714 3.39281 16.4056C3.07101 16.3004 2.80228 16.1495 2.51781 15.9681C2.33565 15.8585 2.15337 15.7491 1.97093 15.64C1.96071 18.4305 1.95299 21.2209 1.94826 24.0114C1.94601 25.3071 1.94294 26.6028 1.93793 27.8985C1.93356 29.0281 1.93074 30.1576 1.92977 31.2871C1.9292 31.885 1.92786 32.4829 1.92468 33.0808C1.9217 33.6441 1.92079 34.2073 1.92145 34.7705C1.92133 34.9768 1.92046 35.183 1.91878 35.3893C1.90696 36.9131 2.02356 37.9813 3.11766 39.1334C3.96018 39.8713 4.8549 40.0732 5.94817 40.0597C6.91926 39.9887 7.58827 39.5605 8.2852 38.8976C9.05908 37.9972 9.31139 37.0411 9.32399 35.8827C9.32532 35.7961 9.32664 35.7095 9.32801 35.6202C9.33229 35.3302 9.33578 35.0402 9.33925 34.7503C9.34208 34.5422 9.34494 34.3341 9.34781 34.126C9.37305 32.2274 9.38734 30.3287 9.39871 28.4299C9.40653 27.154 9.41765 25.8783 9.43709 24.6026C9.45405 23.4885 9.46483 22.3746 9.46816 21.2605C9.47013 20.6712 9.47509 20.0823 9.48743 19.4932C9.49894 18.9383 9.50208 18.384 9.499 17.829C9.4993 17.6262 9.50257 17.4233 9.50914 17.2206C9.56109 16.1457 9.56109 16.1457 9.11946 15.2048C8.09978 14.2048 8.09978 14.2048 6.94963 14.4762Z" fill="#E0C0AB"/>
<path d="M31.3018 8.29704C31.4248 8.29655 31.4248 8.29655 31.5503 8.29605C31.8264 8.2951 32.1026 8.29494 32.3787 8.29477C32.5762 8.29427 32.7736 8.29372 32.971 8.29313C33.5084 8.29169 34.0458 8.29099 34.5832 8.2905C34.9187 8.29018 35.2543 8.28973 35.5898 8.28924C36.6391 8.28775 37.6883 8.28669 38.7376 8.28627C39.9499 8.28578 41.1621 8.28386 42.3744 8.28069C43.3107 8.27833 44.247 8.27722 45.1833 8.27707C45.7429 8.27696 46.3024 8.27631 46.862 8.27436C47.3883 8.27256 47.9146 8.27232 48.441 8.27328C48.6343 8.27337 48.8275 8.27289 49.0208 8.27181C49.2845 8.27042 49.5481 8.27106 49.8119 8.2722C49.8884 8.27132 49.965 8.27044 50.0439 8.26953C50.5164 8.27432 50.8086 8.35633 51.1871 8.64052C51.4169 8.93299 51.4056 9.08271 51.3921 9.46083C51.2839 9.89364 51.2114 10.0167 50.8589 10.2811C50.5686 10.3241 50.3236 10.3403 50.0335 10.3367C49.9083 10.3377 49.9083 10.3377 49.7805 10.3388C49.5004 10.3405 49.2205 10.3391 48.9404 10.3378C48.7397 10.3383 48.539 10.3391 48.3384 10.3401C47.7931 10.3421 47.2478 10.3413 46.7025 10.3399C46.1321 10.3388 45.5618 10.3398 44.9914 10.3405C44.0334 10.3413 43.0754 10.3403 42.1174 10.3382C41.0097 10.3358 39.9019 10.3366 38.7942 10.339C37.8435 10.341 36.8927 10.3412 35.942 10.3401C35.374 10.3394 34.8061 10.3393 34.2381 10.3408C33.704 10.342 33.17 10.3412 32.6359 10.3386C32.4398 10.3381 32.2437 10.3382 32.0477 10.3392C31.7801 10.3404 31.5127 10.3389 31.2451 10.3367C31.1286 10.3382 31.1286 10.3382 31.0097 10.3397C30.4901 10.3314 30.2217 10.2147 29.8589 9.84365C29.7639 9.50828 29.7895 9.19956 29.8589 8.85927C30.2722 8.30821 30.6539 8.29624 31.3018 8.29704Z" fill="#E0C0AB"/>
<path d="M31.2441 23.2283C31.3273 23.2275 31.4104 23.2267 31.4961 23.2259C31.7743 23.224 32.0524 23.226 32.3306 23.228C32.5302 23.2274 32.7298 23.2266 32.9295 23.2256C33.4714 23.2236 34.0132 23.225 34.5551 23.2271C35.1221 23.2289 35.6891 23.228 36.2561 23.2274C37.2083 23.2269 38.1605 23.2286 39.1127 23.2317C40.2137 23.2352 41.3147 23.2352 42.4157 23.2333C43.4746 23.2316 44.5336 23.2323 45.5925 23.2342C46.0433 23.2349 46.494 23.2348 46.9448 23.234C47.4755 23.2332 48.0062 23.2345 48.537 23.2375C48.7318 23.2383 48.9267 23.2383 49.1215 23.2375C49.3874 23.2365 49.6532 23.2383 49.919 23.2407C49.9962 23.2398 50.0734 23.2389 50.153 23.238C50.534 23.2444 50.7461 23.2924 51.0722 23.4958C51.3867 23.8249 51.4097 24.05 51.4097 24.5001C51.236 24.891 51.1126 25.0263 50.7535 25.2657C50.4814 25.2871 50.2216 25.2957 49.9495 25.2943C49.8257 25.2949 49.8257 25.2949 49.6994 25.2955C49.4221 25.2966 49.1448 25.2962 48.8674 25.2958C48.6689 25.2963 48.4704 25.2968 48.2719 25.2975C47.732 25.2989 47.1922 25.299 46.6523 25.2987C46.2019 25.2986 45.7515 25.2991 45.3011 25.2997C44.2386 25.3009 43.1762 25.3009 42.1137 25.3003C41.017 25.2996 39.9204 25.3009 38.8238 25.3033C37.8828 25.3052 36.9419 25.3059 36.0009 25.3055C35.4387 25.3053 34.8764 25.3056 34.3142 25.3071C33.7854 25.3085 33.2567 25.3083 32.7279 25.3069C32.5338 25.3066 32.3396 25.3069 32.1455 25.3078C31.8806 25.3089 31.6157 25.3081 31.3508 25.3067C31.2739 25.3075 31.197 25.3083 31.1177 25.3091C30.6457 25.3039 30.3481 25.2261 29.9722 24.9376C29.7995 24.5922 29.7732 24.215 29.8628 23.8439C30.2774 23.3203 30.6005 23.2175 31.2441 23.2283Z" fill="#E0C0AB"/>
<path d="M31.1307 15.8035C31.2147 15.8028 31.2988 15.8021 31.3854 15.8014C31.6672 15.7997 31.9489 15.801 32.2307 15.8024C32.4327 15.8018 32.6346 15.801 32.8365 15.8001C33.3852 15.7981 33.9339 15.7989 34.4825 15.8003C35.0563 15.8014 35.6301 15.8003 36.2038 15.7997C37.1674 15.7989 38.131 15.7999 39.0946 15.802C40.2092 15.8044 41.3238 15.8036 42.4384 15.8012C43.3948 15.7992 44.3512 15.7989 45.3076 15.8001C45.879 15.8008 46.4505 15.8008 47.0219 15.7994C47.5592 15.7981 48.0963 15.799 48.6336 15.8015C48.8309 15.8021 49.0283 15.802 49.2256 15.801C49.4947 15.7998 49.7636 15.8013 50.0326 15.8035C50.1503 15.802 50.1503 15.802 50.2703 15.8005C50.6357 15.8063 50.8316 15.8355 51.1272 16.0578C51.3717 16.3948 51.4025 16.6487 51.4098 17.0622C51.2725 17.4054 51.1754 17.5602 50.8465 17.7316C50.4656 17.8491 50.1115 17.8585 49.717 17.8563C49.5949 17.8569 49.5949 17.8569 49.4704 17.8576C49.1983 17.8587 48.9262 17.8583 48.6541 17.8578C48.4587 17.8583 48.2634 17.8589 48.0681 17.8595C47.538 17.861 47.0078 17.861 46.4777 17.8608C46.0352 17.8606 45.5927 17.8612 45.1501 17.8617C44.1063 17.8629 43.0625 17.863 42.0187 17.8623C40.9416 17.8616 39.8644 17.863 38.7873 17.8653C37.8626 17.8672 36.9379 17.8679 36.0132 17.8675C35.4609 17.8674 34.9085 17.8676 34.3562 17.8692C33.8369 17.8705 33.3177 17.8703 32.7984 17.8689C32.6078 17.8686 32.4172 17.8689 32.2266 17.8698C31.9665 17.871 31.7065 17.8701 31.4463 17.8687C31.3709 17.8695 31.2954 17.8703 31.2176 17.8712C30.6217 17.8645 30.2793 17.6973 29.8629 17.2809C29.8262 17.0596 29.8262 17.0596 29.8219 16.8024C29.8188 16.7181 29.8157 16.6338 29.8125 16.5469C29.955 15.8392 30.5115 15.7958 31.1307 15.8035Z" fill="#E0C0AB"/>
<path d="M26.8086 30.6666C27.0638 30.6662 27.319 30.6656 27.5741 30.6648C28.2656 30.6632 28.957 30.6651 29.6485 30.6676C30.3726 30.6698 31.0967 30.6692 31.8208 30.6689C33.0366 30.6689 34.2523 30.6711 35.468 30.6746C36.8733 30.6786 38.2785 30.6796 39.6837 30.6788C41.0362 30.6782 42.3887 30.6793 43.7412 30.6815C44.3165 30.6824 44.8918 30.6827 45.4671 30.6825C46.1446 30.6824 46.822 30.6839 47.4994 30.6868C47.7479 30.6876 47.9964 30.6878 48.2449 30.6874C48.5843 30.687 48.9236 30.6886 49.263 30.6908C49.4529 30.6912 49.6427 30.6916 49.8383 30.692C50.3999 30.7386 50.7096 30.8375 51.1609 31.062C51.4194 31.4074 51.4587 31.7846 51.3246 32.1558C50.9044 32.5004 50.6578 32.6822 49.9964 32.7715C49.8039 32.7717 49.6115 32.7719 49.4131 32.7721C49.3054 32.7729 49.1977 32.7738 49.0867 32.7747C48.7269 32.7768 48.3675 32.7751 48.0077 32.7734C47.7493 32.7741 47.4909 32.7751 47.2326 32.7763C46.5316 32.7788 45.8307 32.7778 45.1298 32.7761C44.396 32.7747 43.6623 32.776 42.9286 32.7769C41.6965 32.7779 40.4644 32.7765 39.2322 32.7739C37.8079 32.771 36.3837 32.7719 34.9594 32.7749C33.7363 32.7774 32.5132 32.7778 31.2901 32.7763C30.5597 32.7755 29.8293 32.7754 29.0989 32.7772C28.4122 32.7788 27.7256 32.7777 27.0389 32.7745C26.7869 32.7738 26.535 32.774 26.283 32.7752C25.9389 32.7767 25.5951 32.7748 25.251 32.7721C24.9622 32.7718 24.9622 32.7718 24.6677 32.7715C24.0067 32.6822 23.7613 32.4991 23.3395 32.1558C23.2251 31.9302 23.2251 31.9302 23.227 31.7183C23.223 31.6483 23.219 31.5784 23.2148 31.5064C23.7829 30.4783 25.465 30.6581 26.8086 30.6666Z" fill="#E0C0AB"/>
<path d="M25.2312 45.6502C25.3941 45.649 25.3941 45.649 25.5603 45.6478C25.923 45.6459 26.2853 45.6479 26.648 45.6498C26.9085 45.6493 27.1689 45.6485 27.4294 45.6475C28.1359 45.6454 28.8424 45.6469 29.5489 45.649C30.2883 45.6508 31.0276 45.6498 31.767 45.6493C33.0085 45.6488 34.2499 45.6505 35.4913 45.6536C36.9269 45.6571 38.3624 45.6571 39.798 45.6552C41.1789 45.6535 42.5597 45.6542 43.9406 45.6561C44.5284 45.6568 45.1161 45.6567 45.7039 45.6559C46.3958 45.6551 47.0877 45.6564 47.7796 45.6594C48.0336 45.6601 48.2877 45.6601 48.5417 45.6593C48.8883 45.6584 49.2346 45.6601 49.5812 45.6626C49.7752 45.6629 49.9692 45.6632 50.169 45.6635C50.7619 45.7301 50.9547 45.8421 51.3168 46.1564C51.4369 46.4913 51.4117 46.803 51.3168 47.1407C51.0096 47.4144 50.7864 47.5366 50.3342 47.6876C49.9957 47.6986 49.6567 47.7024 49.3179 47.703C49.1599 47.7035 49.1599 47.7035 48.9986 47.704C48.6439 47.7049 48.2893 47.7051 47.9346 47.7052C47.6809 47.7057 47.4273 47.7063 47.1736 47.7069C46.4833 47.7083 45.793 47.709 45.1027 47.7095C44.6716 47.7098 44.2405 47.7103 43.8093 47.7108C42.461 47.7123 41.1127 47.7133 39.7643 47.7137C38.207 47.7142 36.6496 47.7162 35.0923 47.7193C33.8891 47.7217 32.686 47.7228 31.4829 47.7229C30.764 47.723 30.0452 47.7237 29.3263 47.7256C28.65 47.7274 27.9737 47.7277 27.2974 47.7267C27.0492 47.7266 26.8011 47.7271 26.5529 47.7282C26.2139 47.7296 25.8751 47.7289 25.5361 47.7278C25.3465 47.728 25.1568 47.7281 24.9614 47.7283C24.3944 47.6825 24.0926 47.5875 23.6386 47.3595C23.2291 46.9493 23.2232 46.7515 23.311 46.2657C23.9018 45.7625 24.2842 45.6505 25.2312 45.6502Z" fill="#E0C0AB"/>
<path d="M25.4913 38.1559C25.7072 38.1553 25.9231 38.1546 26.1455 38.154C26.3852 38.1539 26.625 38.1537 26.8648 38.1536C27.1169 38.1531 27.369 38.1526 27.6211 38.152C28.3063 38.1506 28.9916 38.1499 29.6769 38.1494C30.1049 38.149 30.5329 38.1486 30.961 38.1481C32.2999 38.1466 33.6389 38.1456 34.9778 38.1451C36.524 38.1446 38.0701 38.1427 39.6162 38.1396C40.8111 38.1372 42.0059 38.1361 43.2008 38.1359C43.9145 38.1358 44.6283 38.1352 45.3421 38.1332C46.0134 38.1314 46.6848 38.1312 47.3561 38.1321C47.6025 38.1322 47.8488 38.1318 48.0951 38.1307C48.4316 38.1293 48.7679 38.1299 49.1044 38.1311C49.2926 38.1309 49.4809 38.1307 49.6748 38.1306C50.3942 38.189 50.817 38.3807 51.3223 38.7181C51.3773 38.9394 51.3773 38.9394 51.3837 39.1967C51.3884 39.281 51.393 39.3653 51.3978 39.4521C51.2917 39.804 51.086 39.9183 50.6672 40.14C50.1744 40.1954 50.1744 40.1954 49.5866 40.1963C49.4782 40.1971 49.3699 40.1978 49.2583 40.1986C48.8955 40.2006 48.5329 40.1995 48.1701 40.1984C47.9099 40.1991 47.6498 40.2001 47.3896 40.2012C46.683 40.2037 45.9765 40.2033 45.2699 40.2024C44.6801 40.2018 44.0903 40.2026 43.5005 40.2034C42.1092 40.2053 40.7179 40.2049 39.3265 40.2031C37.891 40.2012 36.4555 40.2029 35.0199 40.2065C33.7875 40.2094 32.5551 40.2102 31.3227 40.2093C30.5866 40.2087 29.8505 40.209 29.1144 40.2112C28.4221 40.2132 27.73 40.2126 27.0378 40.2099C26.7838 40.2093 26.5298 40.2097 26.2758 40.2111C25.9289 40.2128 25.5823 40.2112 25.2354 40.2087C24.9443 40.2086 24.9443 40.2086 24.6473 40.2085C23.9782 40.1192 23.7327 39.9465 23.3151 39.5931C23.2027 39.1264 23.2331 38.9143 23.6119 38.5131C24.1979 38.1329 24.7081 38.1573 25.4913 38.1559Z" fill="#E0C0AB"/>
<path d="M25.2187 23.2356C25.4051 23.2338 25.4051 23.2338 25.5953 23.2319C26.5105 23.24 26.5105 23.24 26.8298 23.5061C27.1383 23.8837 27.1736 24.123 27.1259 24.6096C26.929 24.9049 26.7886 25.1064 26.4696 25.2659C26.0602 25.3011 25.6499 25.3013 25.2392 25.3069C25.0689 25.313 25.0689 25.313 24.8952 25.3193C23.9537 25.3301 23.9537 25.3301 23.5503 25.0172C23.2098 24.6151 23.2098 24.6151 23.2226 24.2815C23.2221 24.2115 23.2217 24.1416 23.2213 24.0696C23.545 23.1148 24.3728 23.2178 25.2187 23.2356Z" fill="#E0C0AB"/>
<path d="M25.1973 8.28529C25.3008 8.28303 25.4043 8.28078 25.5109 8.27845C26.475 8.27304 26.475 8.27304 26.9063 8.64076C27.1423 8.99472 27.1528 9.0603 27.1114 9.46107C27.1043 9.54566 27.0973 9.63026 27.09 9.71742C26.9897 10.0357 26.862 10.1102 26.5782 10.2814C26.1274 10.3523 25.6736 10.3371 25.2178 10.3361C25.094 10.3392 24.9701 10.3423 24.8425 10.3455C23.9369 10.3476 23.9369 10.3476 23.4883 10.0285C23.2354 9.64002 23.2237 9.42436 23.2969 8.96888C23.7828 8.19827 24.3694 8.28976 25.1973 8.28529Z" fill="#E0C0AB"/>
<path d="M25.2169 15.8044C25.3411 15.8042 25.4654 15.8039 25.5935 15.8036C26.6216 15.8157 26.6216 15.8157 27.0147 16.1872C27.1379 16.5146 27.1612 16.8244 27.1241 17.1716C26.8514 17.5352 26.6791 17.6845 26.2491 17.8279C25.8895 17.8555 25.5295 17.8532 25.169 17.8552C25.0707 17.8575 24.9725 17.8597 24.8712 17.862C24.3317 17.8652 23.9465 17.8621 23.5147 17.4997C23.2412 17.0895 23.2373 16.8918 23.296 16.406C23.7685 15.6749 24.4325 15.7848 25.2169 15.8044Z" fill="#E0C0AB"/>
</g>
<defs>
<clipPath id="clip0_2154_4245">
<rect width="56" height="56" fill="white"/>
</clipPath>
</defs>
</svg>
